<?xml version="1.0" encoding="utf-8"?>
<!-- Generator: Adobe Illustrator 21.0.0, SVG Export Plug-In . SVG Version: 6.00 Build 0)  -->
<svg version="1.1" id="Layer_1" xmlns="http://www.w3.org/2000/svg" xmlns:xlink="http://www.w3.org/1999/xlink" x="0px" y="0px"
	 viewBox="0 0 127.4 129.3" style="enable-background:new 0 0 127.4 129.3;" xml:space="preserve">
<style type="text/css">
	.st0{fill:#FFFFFF;}
	.st1{fill:url(#SVGID_1_);}
	.st2{fill:url(#SVGID_2_);}
	.st3{fill:url(#SVGID_3_);}
</style>
<circle class="st0" cx="61.7" cy="60.7" r="54.9"/>
<g>
	<linearGradient id="SVGID_1_" gradientUnits="userSpaceOnUse" x1="0.9888" y1="66.1318" x2="99.5518" y2="66.1318">
		<stop  offset="0" style="stop-color:#E63A57"/>
		<stop  offset="1" style="stop-color:#DE092D"/>
	</linearGradient>
	<path class="st1" d="M55.3,115.6C25.4,115.6,1,91.3,1,61.3c0-17.4,8.5-33.9,22.7-44.1l0.8-0.6l3.7,4.6l-0.7,0.6
		C17,31,11,44.1,11,57.9c0,26.4,21.4,47.8,47.8,47.8c13.5,0,26.5-5.8,35.5-15.8l0.6-0.7l4.6,3.7L99,93.6
		C88.8,107.4,72.4,115.6,55.3,115.6z"/>
	<path class="st0" d="M24.2,18l2.5,3.1C16.1,30.4,10,43.8,10,57.9c0,26.9,21.9,48.8,48.8,48.8c13.8,0,27-5.9,36.3-16.1l3.1,2.5
		c-10,13.5-26.1,21.6-42.9,21.6C25.9,114.6,2,90.7,2,61.3C2,44.2,10.3,28,24.2,18 M24.6,15.2l-1.5,1.1C8.6,26.7,0,43.6,0,61.3
		c0,30.5,24.8,55.3,55.3,55.3c17.4,0,34.1-8.4,44.5-22.4l1.1-1.5l-1.5-1.2L96.4,89l-1.5-1.2l-1.3,1.4c-8.9,9.8-21.5,15.5-34.8,15.5
		C33,104.7,12,83.7,12,57.9c0-13.5,5.8-26.3,16-35.2l1.4-1.3l-1.2-1.5l-2.5-3.1L24.6,15.2L24.6,15.2z"/>
</g>
<g>
	<linearGradient id="SVGID_2_" gradientUnits="userSpaceOnUse" x1="31.1294" y1="64.6021" x2="126.4277" y2="64.6021">
		<stop  offset="0" style="stop-color:#3A37CC"/>
		<stop  offset="1" style="stop-color:#5147FE"/>
	</linearGradient>
	<path class="st2" d="M63,128c-8.6,0-16.9-1.7-24.7-5l-0.9-0.4l1.6-4.6l0.9,0.3c5,1.4,10.2,2.2,15.3,2.2c30.5,0,55.4-24.9,55.4-55.4
		c0-30.5-24.9-55.4-55.4-55.4c-7.3,0-14.4,1.4-21.2,4.2l-0.9,0.4l-2.1-4.4l0.8-0.5C41.4,4,52.2,1.2,63,1.2c35,0,63.4,28.4,63.4,63.4
		C126.4,99.6,98,128,63,128z"/>
	<path class="st0" d="M63,2.2c34.4,0,62.4,28,62.4,62.4S97.4,127,63,127c-8.4,0-16.6-1.7-24.3-4.9l1-2.8c5.1,1.5,10.3,2.2,15.6,2.2
		c31.1,0,56.4-25.3,56.4-56.4S86.4,8.7,55.3,8.7c-7.4,0-14.7,1.4-21.5,4.3l-1.3-2.7C41.7,5,52.3,2.2,63,2.2 M63,0.2
		c-11.1,0-22,2.9-31.6,8.3l-1.6,0.9l0.8,1.7l1.3,2.7l0.8,1.7l1.7-0.7c6.6-2.7,13.6-4.1,20.8-4.1c30,0,54.4,24.4,54.4,54.4
		c0,30-24.4,54.4-54.4,54.4c-5.1,0-10.1-0.7-15-2.1l-1.8-0.5l-0.6,1.8l-1,2.8l-0.6,1.8l1.7,0.7c8,3.4,16.4,5.1,25.1,5.1
		c35.5,0,64.4-28.9,64.4-64.4C127.4,29.1,98.5,0.2,63,0.2L63,0.2z"/>
</g>
<g>
	
		<linearGradient id="SVGID_3_" gradientUnits="userSpaceOnUse" x1="82.4105" y1="23.8255" x2="82.4105" y2="86.041" gradientTransform="matrix(0.9976 6.932619e-02 -6.932619e-02 0.9976 -23.0294 14.3661)">
		<stop  offset="0" style="stop-color:#8C37F6"/>
		<stop  offset="1" style="stop-color:#261239"/>
	</linearGradient>
	<path class="st3" d="M84,42c-0.5-2.3-3.3-3.3-3.9-3.5l-9.3,0.1c-0.9,0-1.9,0.2-2.2,0.4c0.1,0,0.2,0.6,1.5,1.7
		c2.9,2.7,4.4,6.1,4.4,9.9c0,10.9-12,22.2-12.5,22.7l-1.3,1.2L60,72.9c0,0-10.8-24-13.4-29.7c-2.2-4.8-2.7-4.8-4-4.7
		c-2.7,0.1-9.8,0-12.1,0c0.1,0.2,0.2,0.5,0.4,0.8c13,24.1,17.7,37.2,20.2,44.3c2.1,5.8,2.6,7.2,4.6,7.9c4.8,1.6,15.7-9.8,23.3-24.4
		C86.4,52.6,84.7,44.9,84,42z"/>
</g>
</svg>
