<?xml version="1.0" encoding="utf-8"?>
<!-- Generator: Adobe Illustrator 21.0.0, SVG Export Plug-In . SVG Version: 6.00 Build 0)  -->
<svg version="1.1" id="Layer_1" xmlns="http://www.w3.org/2000/svg" xmlns:xlink="http://www.w3.org/1999/xlink" x="0px" y="0px"
	 viewBox="0 0 510.2 199" style="enable-background:new 0 0 510.2 199;" xml:space="preserve">
<style type="text/css">
	.st0{fill:url(#SVGID_1_);}
	.st1{fill:url(#SVGID_2_);}
	.st2{fill:url(#SVGID_3_);}
	.st3{fill:url(#SVGID_4_);}
	.st4{fill:url(#SVGID_5_);}
	.st5{fill:url(#SVGID_6_);}
	.st6{fill:#666666;}
</style>
<linearGradient id="SVGID_1_" gradientUnits="userSpaceOnUse" x1="267.8954" y1="29.4258" x2="267.8954" y2="136.9788">
	<stop  offset="0" style="stop-color:#8C37F6"/>
	<stop  offset="1" style="stop-color:#261239"/>
</linearGradient>
<path class="st0" d="M226.5,17.5h37.4c27.3,0,45.3,18,45.3,45.9c0,27.4-17.5,48.2-46.3,48.2h-36.5V17.5z M246.9,95.2h15.3
	c18,0,26.1-13.5,26.1-31.8c0-15.4-7.5-29.5-25.9-29.5h-15.4V95.2z"/>
<linearGradient id="SVGID_2_" gradientUnits="userSpaceOnUse" x1="365.3845" y1="29.4258" x2="365.3845" y2="136.9788">
	<stop  offset="0" style="stop-color:#8C37F6"/>
	<stop  offset="1" style="stop-color:#261239"/>
</linearGradient>
<path class="st1" d="M346.1,17.5v56c0,18.2,9.3,23.5,19.5,23.5c11.6,0,18.8-6.3,18.8-23.5v-56H405v55c0,32.2-18.8,40.4-39.6,40.4
	c-21.3,0-39.6-8.6-39.6-40V17.5H346.1z"/>
<linearGradient id="SVGID_3_" gradientUnits="userSpaceOnUse" x1="456.9353" y1="29.4258" x2="456.9353" y2="136.9788">
	<stop  offset="0" style="stop-color:#8C37F6"/>
	<stop  offset="1" style="stop-color:#261239"/>
</linearGradient>
<path class="st2" d="M439.1,84c2.2,9.4,8.9,13.7,19.8,13.7c10.9,0,15.6-4.4,15.6-11.2c0-7.8-4.5-11.1-20.6-14.7
	c-25.7-6-32-15.4-32-28.1c0-16.4,12.3-27.4,34.5-27.4c25,0,35,13.4,36.3,27.2h-20.5c-1.1-5.9-4.2-12.2-16.4-12.2
	c-8.3,0-13.2,3.4-13.2,10.1c0,6.6,4,9.3,19.3,12.7c27.3,6.6,33.3,16.7,33.3,30c0,17.1-13,28.9-37.8,28.9
	c-23.9,0-36.6-11.7-38.8-28.9H439.1z"/>
<g>
	
		<linearGradient id="SVGID_4_" gradientUnits="userSpaceOnUse" x1="57.87" y1="23.2996" x2="57.87" y2="130.8526" gradientTransform="matrix(0.9976 6.932619e-02 -6.932619e-02 0.9976 8.871 2.0911)">
		<stop  offset="0" style="stop-color:#8C37F6"/>
		<stop  offset="1" style="stop-color:#261239"/>
	</linearGradient>
	<path class="st3" d="M110.7,26.2c-0.9-4-5.6-5.7-6.8-6.1l-16.1,0.2c-1.6,0-3.4,0.3-3.8,0.7c0.1,0,0.4,1,2.5,3
		c5.1,4.7,7.7,10.5,7.7,17.1c0,18.8-20.7,38.4-21.6,39.2l-2.3,2.1l-1.3-2.9c0,0-18.7-41.6-23.1-51.3c-3.8-8.2-4.6-8.2-6.9-8.2
		c-4.7,0.1-16.9,0-21-0.1c0.1,0.3,0.3,0.8,0.7,1.4c22.6,41.6,30.6,64.4,35,76.6c3.6,10.1,4.5,12.5,8,13.7
		c8.3,2.8,27.1-16.9,40.2-42.2C114.9,44.6,111.9,31.2,110.7,26.2z"/>
</g>
<linearGradient id="SVGID_5_" gradientUnits="userSpaceOnUse" x1="118.7883" y1="69.7174" x2="191.4515" y2="69.7174">
	<stop  offset="0" style="stop-color:#E63A57"/>
	<stop  offset="1" style="stop-color:#DE092D"/>
</linearGradient>
<path class="st4" d="M187.4,86.6c-6.6,7.3-15.9,11.4-25.7,11.4c-19.1,0-34.6-15.5-34.6-34.6c0-10,4.3-19.5,11.8-26l-3.3-4.1
	c-10.5,7.6-16.8,19.8-16.8,32.7c0,22.2,18.1,40.3,40.3,40.3c12.7,0,24.8-6.1,32.4-16.3L187.4,86.6z"/>
<linearGradient id="SVGID_6_" gradientUnits="userSpaceOnUse" x1="140.2589" y1="67.6293" x2="214.1912" y2="67.6293">
	<stop  offset="0" style="stop-color:#3A37CC"/>
	<stop  offset="1" style="stop-color:#5147FE"/>
</linearGradient>
<path class="st5" d="M164.6,18c-8.5,0-16.9,2.2-24.3,6.4l1.2,2.4c5.4-2.2,11.1-3.4,17-3.4c24.6,0,44.6,20,44.6,44.6
	s-20,44.6-44.6,44.6c-4.2,0-8.3-0.6-12.3-1.7l-0.9,2.5c6.1,2.6,12.6,3.9,19.4,3.9c27.4,0,49.6-22.3,49.6-49.6
	C214.2,40.3,191.9,18,164.6,18z"/>
<g>
	<g>
		<path class="st6" d="M77,169.9c0-5.8,0.1-11.8,0.2-15.2h-0.2c-1.4,5.4-6.1,18.4-9.6,28.3h-4.1c-2.6-8.2-7.6-22.8-9-28.3h-0.2
			c0.3,3.6,0.4,10.6,0.4,16V183h-4.4v-31.6h7c3.4,9.6,7.4,21.7,8.5,25.9h0c0.8-3.2,5.6-16.6,9.1-25.9h6.8V183H77V169.9z"/>
		<path class="st6" d="M136.6,168.5H121v10.6h17.2l-0.6,4h-21.2v-31.6h20.9v4H121v9.1h15.6V168.5z"/>
		<path class="st6" d="M174.8,169.3V183h-4.6v-31.6h12.6c6.6,0,10.1,3.6,10.1,8.5c0,4.1-2.4,6.6-5.2,7.5c2.4,0.6,4.6,2.5,4.6,8.1
			v1.4c0,2.2,0,4.9,0.5,6.2h-4.6c-0.5-1.4-0.5-3.8-0.5-6.9v-0.6c0-4.3-1.2-6.2-6.8-6.2H174.8z M174.8,165.5h6.6
			c4.6,0,6.6-1.7,6.6-5.1c0-3.2-2.1-5-6.2-5h-7.1V165.5z"/>
		<path class="st6" d="M251.3,173.9c-1.4,5.5-5.5,9.5-12.7,9.5c-9.6,0-14.3-7.1-14.3-16.1c0-8.6,4.8-16.4,14.5-16.4
			c7.6,0,11.7,4.4,12.6,9.7h-4.7c-1-3.3-3.2-5.8-8.1-5.8c-6.7,0-9.4,6.1-9.4,12.4c0,6.1,2.5,12.4,9.6,12.4c4.8,0,6.8-2.8,7.9-5.6
			H251.3z"/>
		<path class="st6" d="M283.7,151.4h4.7v13.1h15.7v-13.1h4.7V183h-4.7v-14.6h-15.7V183h-4.7V151.4z"/>
		<path class="st6" d="M348,174l-3.2,9.1h-4.7l11.1-31.6h5.8l11.6,31.6h-5l-3.3-9.1H348z M359.3,170c-2.9-8-4.5-12.4-5.2-14.8h0
			c-0.8,2.7-2.6,8-4.9,14.8H359.3z"/>
		<path class="st6" d="M400,183v-31.6h6.1c4.4,7.4,13.8,22.5,15.5,25.9h0c-0.3-3.9-0.3-9-0.3-14.2v-11.8h4.4V183H420
			c-4-6.7-13.9-23.2-15.8-26.8h-0.1c0.2,3.5,0.3,9,0.3,14.7V183H400z"/>
		<path class="st6" d="M467,155.4h-10.1v-4h24.9v4h-10.1V183H467V155.4z"/>
	</g>
</g>
</svg>
