<?xml version="1.0" encoding="utf-8"?>
<!-- Generator: Adobe Illustrator 21.0.0, SVG Export Plug-In . SVG Version: 6.00 Build 0)  -->
<svg version="1.1" id="Layer_1" xmlns="http://www.w3.org/2000/svg" xmlns:xlink="http://www.w3.org/1999/xlink" x="0px" y="0px"
	 viewBox="0 0 269.9 68.7" style="enable-background:new 0 0 269.9 68.7;" xml:space="preserve">
<style type="text/css">
	.st0{fill:url(#SVGID_1_);}
	.st1{fill:url(#SVGID_2_);}
	.st2{fill:url(#SVGID_3_);}
	.st3{fill:url(#SVGID_4_);}
	.st4{fill:url(#SVGID_5_);}
	.st5{fill:url(#SVGID_6_);}
</style>
<linearGradient id="SVGID_1_" gradientUnits="userSpaceOnUse" x1="141.378" y1="14.2334" x2="141.378" y2="72.8613">
	<stop  offset="0" style="stop-color:#8C37F6"/>
	<stop  offset="1" style="stop-color:#261239"/>
</linearGradient>
<path class="st0" d="M118.8,7.7h20.4c14.9,0,24.7,9.8,24.7,25c0,15-9.5,26.3-25.2,26.3h-19.9V7.7z M129.9,50.1h8.3
	c9.8,0,14.2-7.4,14.2-17.3c0-8.4-4.1-16.1-14.1-16.1h-8.4V50.1z"/>
<linearGradient id="SVGID_2_" gradientUnits="userSpaceOnUse" x1="194.5199" y1="14.2334" x2="194.5199" y2="72.8613">
	<stop  offset="0" style="stop-color:#8C37F6"/>
	<stop  offset="1" style="stop-color:#261239"/>
</linearGradient>
<path class="st1" d="M184,7.7v30.5c0,9.9,5.1,12.8,10.6,12.8c6.3,0,10.3-3.4,10.3-12.8V7.7h11.2v30c0,17.6-10.3,22-21.6,22
	c-11.6,0-21.6-4.7-21.6-21.8V7.7H184z"/>
<linearGradient id="SVGID_3_" gradientUnits="userSpaceOnUse" x1="244.4249" y1="14.2334" x2="244.4249" y2="72.8613">
	<stop  offset="0" style="stop-color:#8C37F6"/>
	<stop  offset="1" style="stop-color:#261239"/>
</linearGradient>
<path class="st2" d="M234.7,44c1.2,5.1,4.8,7.4,10.8,7.4c6,0,8.5-2.4,8.5-6.1c0-4.2-2.5-6-11.2-8c-14-3.3-17.4-8.4-17.4-15.3
	c0-8.9,6.7-15,18.8-15c13.6,0,19.1,7.3,19.8,14.8h-11.2c-0.6-3.2-2.3-6.6-8.9-6.6c-4.5,0-7.2,1.9-7.2,5.5c0,3.6,2.2,5.1,10.5,6.9
	c14.9,3.6,18.2,9.1,18.2,16.4c0,9.3-7.1,15.8-20.6,15.8c-13,0-19.9-6.4-21.1-15.8H234.7z"/>
<g>
	
		<linearGradient id="SVGID_4_" gradientUnits="userSpaceOnUse" x1="33.159" y1="1.8472" x2="33.159" y2="60.475" gradientTransform="matrix(0.9976 6.932619e-02 -6.932619e-02 0.9976 -2.1802 10.0488)">
		<stop  offset="0" style="stop-color:#8C37F6"/>
		<stop  offset="1" style="stop-color:#261239"/>
	</linearGradient>
	<path class="st3" d="M55.7,12.5c-0.5-2.2-3.1-3.1-3.7-3.3l-8.8,0.1c-0.8,0-1.8,0.2-2.1,0.4c0.1,0,0.2,0.5,1.4,1.6
		c2.8,2.6,4.2,5.7,4.2,9.3C46.8,30.9,35.5,41.5,35,42l-1.3,1.2l-0.7-1.6c0,0-10.2-22.7-12.6-27.9c-2-4.5-2.5-4.5-3.8-4.5
		c-2.6,0.1-9.2,0-11.4,0c0.1,0.2,0.2,0.4,0.4,0.8C17.9,32.6,22.3,45,24.7,51.6c1.9,5.5,2.5,6.8,4.4,7.4c4.5,1.5,14.8-9.2,21.9-23
		C58,22.5,56.3,15.2,55.7,12.5z"/>
</g>
<linearGradient id="SVGID_5_" gradientUnits="userSpaceOnUse" x1="60.0987" y1="36.1966" x2="99.7079" y2="36.1966">
	<stop  offset="0" style="stop-color:#E63A57"/>
	<stop  offset="1" style="stop-color:#DE092D"/>
</linearGradient>
<path class="st4" d="M97.5,45.4c-3.6,4-8.7,6.2-14,6.2c-10.4,0-18.9-8.5-18.9-18.9c0-5.4,2.4-10.6,6.5-14.2l-1.8-2.3
	c-5.7,4.1-9.2,10.8-9.2,17.8c0,12.1,9.9,22,22,22c6.9,0,13.5-3.3,17.6-8.9L97.5,45.4z"/>
<linearGradient id="SVGID_6_" gradientUnits="userSpaceOnUse" x1="71.8025" y1="35.0584" x2="112.1035" y2="35.0584">
	<stop  offset="0" style="stop-color:#3A37CC"/>
	<stop  offset="1" style="stop-color:#5147FE"/>
</linearGradient>
<path class="st5" d="M85.1,8c-4.6,0-9.2,1.2-13.3,3.5l0.6,1.3c3-1.2,6.1-1.8,9.3-1.8C95.1,11,106,21.9,106,35.3S95.1,59.6,81.7,59.6
	c-2.3,0-4.5-0.3-6.7-0.9L74.5,60c3.3,1.4,6.9,2.1,10.5,2.1c14.9,0,27-12.1,27-27C112.1,20.1,100,8,85.1,8z"/>
</svg>
