<?xml version="1.0" encoding="utf-8"?>
<!-- Generator: Adobe Illustrator 21.0.0, SVG Export Plug-In . SVG Version: 6.00 Build 0)  -->
<svg version="1.1" id="Layer_1" xmlns="http://www.w3.org/2000/svg" xmlns:xlink="http://www.w3.org/1999/xlink" x="0px" y="0px"
	 viewBox="0 0 269.9 107.8" style="enable-background:new 0 0 269.9 107.8;" xml:space="preserve">
<style type="text/css">
	.st0{fill:url(#SVGID_1_);}
	.st1{fill:url(#SVGID_2_);}
	.st2{fill:url(#SVGID_3_);}
	.st3{fill:url(#SVGID_4_);}
	.st4{fill:url(#SVGID_5_);}
	.st5{fill:url(#SVGID_6_);}
	.st6{fill:#666666;}
</style>
<linearGradient id="SVGID_1_" gradientUnits="userSpaceOnUse" x1="141.3887" y1="14.2653" x2="141.3887" y2="73.0691">
	<stop  offset="0" style="stop-color:#8C37F6"/>
	<stop  offset="1" style="stop-color:#261239"/>
</linearGradient>
<path class="st0" d="M118.8,7.7h20.5c14.9,0,24.8,9.9,24.8,25.1c0,15-9.6,26.4-25.3,26.4h-19.9V7.7z M129.9,50.2h8.4
	c9.9,0,14.3-7.4,14.3-17.4c0-8.4-4.1-16.1-14.2-16.1h-8.4V50.2z"/>
<linearGradient id="SVGID_2_" gradientUnits="userSpaceOnUse" x1="194.6902" y1="14.2653" x2="194.6902" y2="73.0691">
	<stop  offset="0" style="stop-color:#8C37F6"/>
	<stop  offset="1" style="stop-color:#261239"/>
</linearGradient>
<path class="st1" d="M184.2,7.7v30.6c0,9.9,5.1,12.8,10.7,12.8c6.3,0,10.3-3.4,10.3-12.8V7.7h11.2v30.1c0,17.6-10.3,22.1-21.7,22.1
	c-11.6,0-21.7-4.7-21.7-21.9V7.7H184.2z"/>
<linearGradient id="SVGID_3_" gradientUnits="userSpaceOnUse" x1="244.745" y1="14.2653" x2="244.745" y2="73.0691">
	<stop  offset="0" style="stop-color:#8C37F6"/>
	<stop  offset="1" style="stop-color:#261239"/>
</linearGradient>
<path class="st2" d="M235,44.1c1.2,5.2,4.9,7.5,10.8,7.5c6,0,8.5-2.4,8.5-6.1c0-4.3-2.5-6-11.3-8.1c-14-3.3-17.5-8.4-17.5-15.4
	c0-9,6.7-15,18.9-15c13.7,0,19.1,7.3,19.9,14.9h-11.2c-0.6-3.2-2.3-6.6-9-6.6c-4.6,0-7.2,1.9-7.2,5.5c0,3.6,2.2,5.1,10.5,6.9
	c14.9,3.6,18.2,9.1,18.2,16.4c0,9.3-7.1,15.8-20.7,15.8c-13.1,0-20-6.4-21.2-15.8H235z"/>
<g>
	
		<linearGradient id="SVGID_4_" gradientUnits="userSpaceOnUse" x1="40.0818" y1="1.6498" x2="40.0818" y2="60.4536" gradientTransform="matrix(0.9976 6.932619e-02 -6.932619e-02 0.9976 -9.4214 9.7975)">
		<stop  offset="0" style="stop-color:#8C37F6"/>
		<stop  offset="1" style="stop-color:#261239"/>
	</linearGradient>
	<path class="st3" d="M55.5,12.5c-0.5-2.2-3.1-3.1-3.7-3.3L43,9.3c-0.8,0-1.8,0.2-2.1,0.4c0.1,0,0.2,0.5,1.4,1.6
		c2.8,2.6,4.2,5.7,4.2,9.4c0,10.3-11.3,21-11.8,21.4l-1.3,1.2l-0.7-1.6c0,0-10.2-22.7-12.6-28c-2.1-4.5-2.5-4.5-3.8-4.5
		c-2.6,0.1-9.2,0-11.5,0C4.9,9.3,5,9.6,5.2,9.9C17.5,32.6,22,45.1,24.3,51.8c2,5.5,2.5,6.8,4.4,7.5c4.6,1.5,14.8-9.2,22-23.1
		C57.8,22.5,56.1,15.2,55.5,12.5z"/>
</g>
<linearGradient id="SVGID_5_" gradientUnits="userSpaceOnUse" x1="59.8654" y1="36.2944" x2="99.5935" y2="36.2944">
	<stop  offset="0" style="stop-color:#E63A57"/>
	<stop  offset="1" style="stop-color:#DE092D"/>
</linearGradient>
<path class="st4" d="M97.4,45.5c-3.6,4-8.7,6.3-14.1,6.3c-10.4,0-18.9-8.5-18.9-18.9c0-5.5,2.4-10.6,6.5-14.2l-1.8-2.3
	c-5.8,4.1-9.2,10.8-9.2,17.9c0,12.1,9.9,22,22,22c6.9,0,13.6-3.3,17.7-8.9L97.4,45.5z"/>
<linearGradient id="SVGID_6_" gradientUnits="userSpaceOnUse" x1="71.6043" y1="35.1528" x2="112.0263" y2="35.1528">
	<stop  offset="0" style="stop-color:#3A37CC"/>
	<stop  offset="1" style="stop-color:#5147FE"/>
</linearGradient>
<path class="st5" d="M84.9,8c-4.7,0-9.3,1.2-13.3,3.5l0.6,1.3c3-1.2,6.1-1.8,9.3-1.8c13.4,0,24.4,10.9,24.4,24.4S95,59.7,81.5,59.7
	c-2.3,0-4.5-0.3-6.7-1l-0.5,1.4c3.4,1.4,6.9,2.1,10.6,2.1c15,0,27.1-12.2,27.1-27.1C112,20.2,99.9,8,84.9,8z"/>
<g>
	<g>
		<path class="st6" d="M37,91.1c0-3.2,0-6.4,0.1-8.3h-0.1c-0.7,2.9-3.4,10-5.3,15.5h-2.3c-1.4-4.5-4.1-12.5-4.9-15.5h-0.1
			c0.1,2,0.2,5.8,0.2,8.7v6.8h-2.4V81h3.8c1.8,5.2,4.1,11.9,4.7,14.2h0c0.4-1.8,3.1-9.1,5-14.2h3.7v17.3H37V91.1z"/>
		<path class="st6" d="M69.6,90.3h-8.5v5.8h9.4l-0.3,2.2H58.6V81H70v2.2h-8.9v5h8.5V90.3z"/>
		<path class="st6" d="M90.5,90.8v7.5h-2.5V81h6.9c3.6,0,5.5,2,5.5,4.7c0,2.3-1.3,3.6-2.9,4.1c1.3,0.3,2.5,1.4,2.5,4.4v0.7
			c0,1.2,0,2.7,0.2,3.4h-2.5c-0.3-0.7-0.3-2.1-0.3-3.8v-0.3c0-2.4-0.6-3.4-3.7-3.4H90.5z M90.5,88.7h3.6c2.5,0,3.6-0.9,3.6-2.8
			c0-1.7-1.1-2.7-3.4-2.7h-3.9V88.7z"/>
		<path class="st6" d="M132.3,93.3c-0.7,3-3,5.2-7,5.2c-5.2,0-7.8-3.9-7.8-8.8c0-4.7,2.6-9,7.9-9c4.2,0,6.4,2.4,6.9,5.3h-2.6
			c-0.6-1.8-1.7-3.2-4.4-3.2c-3.7,0-5.1,3.3-5.1,6.8c0,3.3,1.4,6.8,5.2,6.8c2.6,0,3.7-1.5,4.3-3.1H132.3z"/>
		<path class="st6" d="M150.1,81h2.6v7.1h8.6V81h2.6v17.3h-2.6v-8h-8.6v8h-2.6V81z"/>
		<path class="st6" d="M185.2,93.3l-1.7,4.9h-2.6L187,81h3.2l6.4,17.3h-2.7l-1.8-4.9H185.2z M191.4,91.1c-1.6-4.4-2.5-6.8-2.8-8.1h0
			c-0.4,1.5-1.4,4.4-2.7,8.1H191.4z"/>
		<path class="st6" d="M213.6,98.3V81h3.3c2.4,4,7.5,12.3,8.5,14.2h0c-0.2-2.1-0.1-4.9-0.1-7.7V81h2.4v17.3h-3.1
			c-2.2-3.7-7.6-12.7-8.6-14.6h0c0.1,1.9,0.1,4.9,0.1,8.1v6.6H213.6z"/>
		<path class="st6" d="M250.3,83.2h-5.5V81h13.6v2.2h-5.5v15.1h-2.6V83.2z"/>
	</g>
</g>
</svg>
