<?xml version="1.0" encoding="utf-8"?>
<!-- Generator: Adobe Illustrator 21.0.0, SVG Export Plug-In . SVG Version: 6.00 Build 0)  -->
<svg version="1.1" id="Layer_1" xmlns="http://www.w3.org/2000/svg" xmlns:xlink="http://www.w3.org/1999/xlink" x="0px" y="0px"
	 viewBox="0 0 100 100" enable-background="new 0 0 100 100" xml:space="preserve">
<g>
	<path d="M48.5,18.9c0,1.1,0.6,1.8,1.6,1.9c0.4,0,0.8-0.1,1-0.4c0.3-0.3,0.5-0.9,0.5-1.5c0-1.3,0-2.7,0-4c0-0.6,0-1.2,0-1.7
		c0-0.6,0-1.2,0-1.7c0-1.3,0-2.7,0-4.1c0-1.2-0.6-1.9-1.5-1.9c0,0,0,0-0.1,0c-0.4,0-0.8,0.1-1,0.4c-0.3,0.3-0.5,0.8-0.5,1.5
		C48.4,11.2,48.4,15.1,48.5,18.9z"/>
	<path d="M76.6,28.3L76.6,28.3L76.6,28.3c0.3,0,0.6-0.2,0.9-0.4c0.4-0.4,0.8-0.7,1.1-1.1c1.7-1.7,3.5-3.4,5.1-5.2
		c0.3-0.4,0.5-0.8,0.5-1.2c0-0.4-0.3-0.8-0.7-1.1c-0.7-0.5-1.5-0.4-2.2,0.3c-1.8,1.8-3.6,3.6-5.4,5.4l-0.4,0.4
		c-0.2,0.2-0.3,0.4-0.5,0.6c-0.3,0.5-0.2,1,0,1.5C75.4,28,76,28.3,76.6,28.3z"/>
	<path d="M16.6,21.9c1.9,1.9,3.8,3.9,5.8,5.8c0.8,0.7,1.7,0.8,2.3,0.1c0.6-0.6,0.6-1.6-0.1-2.3c-1.8-1.9-3.7-3.7-5.6-5.6l-0.5-0.5
		c-0.4-0.4-0.8-0.6-1.1-0.5l0,0l0,0l0,0c-0.7,0-1.2,0.3-1.5,0.9c-0.4,0.8,0,1.4,0.4,1.8L16.6,21.9z"/>
	<path d="M9.2,53c-0.1-0.8-0.7-1.3-1.5-1.4c-0.4,0-0.9,0-1.3,0c-0.1,0-0.2,0-0.3,0l0,0H5.8c-0.2,0-0.4,0-0.6,0s-0.4,0-0.6,0
		c-0.3,0-0.5,0-0.8,0c-0.8,0.1-1.4,0.7-1.5,1.5c0,0.8,0.5,1.4,1.2,1.5c1.4,0.2,2.8,0.2,4.4,0C8.8,54.5,9.3,53.9,9.2,53z"/>
	<path d="M97.7,53.1c0-0.8-0.7-1.4-1.5-1.5c-0.4,0-0.9,0-1.3,0c-0.1,0-0.2,0-0.3,0l0,0h-0.3c-0.2,0-0.4,0-0.7,0c-0.2,0-0.4,0-0.7,0
		c-0.3,0-0.5,0-0.8,0c-0.8,0.1-1.3,0.6-1.4,1.4c0,0.9,0.4,1.4,1.2,1.6c1.4,0.2,2.9,0.2,4.5,0C97.2,54.5,97.7,53.8,97.7,53.1z"/>
	<path d="M50.1,24L50.1,24c-0.4,0-0.8,0.2-1.1,0.5s-0.5,0.7-0.5,1.1c0,0.8,0.7,1.6,1.5,1.6s1.5-0.7,1.6-1.5
		C51.6,24.8,51,24.1,50.1,24z"/>
	<path d="M86.2,55.9c1.7-1.9,1.8-3.6,0.4-5.8l0,0c-1-1.6-2.1-3.2-3.1-4.8c-2.2-3.4-4.5-6.9-6.7-10.3c-1.1-1.7-2.5-2.5-4.5-2.4
		c-5.4,0-10.9,0-16.2,0c-4.1,0-8.2,0-12.3,0c-5.4,0-10.9,0-16.3,0l0,0c-1.9,0-3.3,0.8-4.3,2.4c-2.2,3.5-4.5,7-6.7,10.3
		c-1,1.6-2.1,3.2-3.1,4.8C12,52.3,12.1,54,13.8,56c1.3,1.5,2.6,3,4,4.5c0.6,0.7,1.3,1.4,1.9,2.1l3.1,3.5
		c7.9,8.9,15.8,17.7,23.7,26.6c0.5,0.6,1.1,1.2,1.9,1.5c1.8,0.7,3.5,0.3,4.9-1.4C64.5,80.3,75.6,67.9,86.2,55.9z M74.4,37.1
		l9.3,14.4H65.1L74.4,37.1z M71.5,35.9l-9.3,14.4l-9.3-14.4H71.5z M50,37.7L50,37.7c0.3,0,0.5,0.3,0.7,0.6c1.9,3,3.9,6,5.7,8.9
		c0.7,1.1,1.4,2.1,2.1,3.2c0.1,0.1,0.1,0.2,0.2,0.4c0,0.1,0.1,0.2,0.1,0.2l0.3,0.5H40.8l0.8-1.2c0.3-0.5,0.7-1,1-1.5
		c0.6-0.9,1.2-1.8,1.8-2.8c1.6-2.5,3.3-5.1,4.9-7.7C49.5,38,49.7,37.7,50,37.7z M47.1,35.8l-9.3,14.4l-9.3-14.4
		C28.5,35.8,47.1,35.8,47.1,35.8z M25.6,37.1L35,51.5H16.2L25.6,37.1z M46.4,87.2l-0.2,0.4L16.9,54.7H22c4.5,0,9.1,0,13.6,0
		c0.6,0,1.1,0.1,1.3,0.9c3,9.7,6,19.5,8.9,29l0.6,1.9C46.5,86.6,46.6,86.9,46.4,87.2z M52.3,79.7l-2,6.5h-0.6L40,54.7h6.9
		c3.9,0,8,0,12,0c0,0,0.1,0,0.2,0c0.2,0,0.5-0.1,0.7,0.1c0.2,0.2,0.1,0.6,0,0.8C57.3,63.7,54.7,71.8,52.3,79.7z M61,62.2
		c0.7-2.2,1.3-4.4,2-6.5c0.1-0.5,0.3-1,1.1-1c4.4,0,8.9,0,13.2,0c1.5,0,3.1,0,4.6,0c0.1,0,0.2,0,0.3,0c0,0,0.1,0,0.2,0l0.5,0.1
		L53.8,87.5l-0.5-0.4L61,62.2z"/>
</g>
</svg>
