<?xml version="1.0" encoding="utf-8"?>
<!-- Generator: Adobe Illustrator 21.0.0, SVG Export Plug-In . SVG Version: 6.00 Build 0)  -->
<svg version="1.1" id="Layer_1" xmlns="http://www.w3.org/2000/svg" xmlns:xlink="http://www.w3.org/1999/xlink" x="0px" y="0px"
	 viewBox="0 0 100 100" enable-background="new 0 0 100 100" xml:space="preserve">
<path d="M47.8,8.6l-0.9,0.5c-0.1,0-0.3,0.2-0.7,0.4c-2,1.2-8.9,5.6-14.7,10.4c-4,3.3-7.6,7.4-10.2,11.7c-3.3,5.4-5,10.9-5,16.3
	c0,6.7,0.9,12,2.9,16.8c2.4,5.8,6.6,10.9,12.6,15.6c8.9,6.9,12.8,9.4,14.3,10.3c0.6,0.3,0.9,0.5,1,0.5l0.8,0.3L83.7,68V30.3
	L47.8,8.6z M71.5,65.4c2.2-1.4,2.8-4.3,1.5-6.4c-0.7-1.1-1.7-1.8-2.9-2.1c-1.2-0.3-2.5-0.1-3.5,0.6c-1.6,1-2.5,3-2.1,4.8l-15.1,9.5
	V60.9L62,53c1.5,1.2,3.6,1.2,5.3,0.2c1.1-0.7,1.8-1.7,2.1-2.9s0.1-2.5-0.6-3.5c-1.4-2.2-4.2-2.8-6.4-1.5c-1.6,1-2.5,2.9-2.1,4.8
	l-10.8,6.8V46l8.2-5c1.5,1.2,3.6,1.3,5.3,0.3c1.1-0.7,1.8-1.7,2.1-2.9s0.1-2.5-0.6-3.5c-1.3-2.2-4.2-2.9-6.4-1.5
	c-1.6,1-2.5,2.9-2.1,4.8l-6.4,4v-11l4.7-3.1l-1.8-2.8l-2.8,1.9V13.7l31,18.7v34l-31,20.2V76l16.8-10.6
	C67.8,66.4,69.9,66.5,71.5,65.4z M41.4,28l4.7,3.1V42l-7.3-4.8L37,40l9.1,6v10.9l-11.7-7.7L32.6,52l13.5,8.9v10.9L30.2,61.4
	l-1.8,2.8l17.7,11.6v10.8c-2-1.3-5.7-3.9-12.1-8.9C21.5,68,19.8,57.7,19.8,48c0-10.3,7.2-19.9,13.9-25.5c4.4-3.6,9.6-7.1,12.4-9
	v13.6l-2.8-1.9L41.4,28z"/>
</svg>
