<?xml version="1.0" encoding="utf-8"?>
<!-- Generator: Adobe Illustrator 21.0.0, SVG Export Plug-In . SVG Version: 6.00 Build 0)  -->
<svg version="1.1" id="Layer_1" xmlns="http://www.w3.org/2000/svg" xmlns:xlink="http://www.w3.org/1999/xlink" x="0px" y="0px"
	 viewBox="0 0 100 100" enable-background="new 0 0 100 100" xml:space="preserve">
<g>
	<path d="M94.3,78.4c-1.2-0.8-2.3-1.6-3.5-2.3c-1.1-0.7-2.2-1.4-3.2-2.2c-0.2-0.1-0.4-0.2-0.6-0.3c-0.4-0.2-0.9-0.5-1-0.8
		s0.2-0.7,0.5-1.1c0.1-0.2,0.3-0.4,0.4-0.6c0.8-1.5,0.7-2-0.6-3.2c-2-1.8-4.2-3.4-6.7-4.7c-0.6-0.3-0.6-0.4-0.4-1
		c1.3-2.8,2.4-6,3.5-9.8c1.5-5.3,2.5-10.8,3-16.9c0.5-5.8,0.6-10.9,0.2-15.6c-0.1-1.3-0.6-1.7-1.9-1.9c-3.2-0.4-6-0.9-8.8-1.6
		c-8.9-2.3-17-6-24-11.2c-1-0.8-1.6-0.8-2.6,0l-0.1,0.1c-0.2,0.1-0.4,0.3-0.6,0.4C38.4,12.4,27.6,16.6,16,17.9c-1.5,0.2-1.9,0.6-2,2
		c-0.3,3.1-0.3,6.1-0.2,8.4c0,1.5,0.1,3.1,0.2,4.6c0,0.4,0,0.7,0.1,1.1c0.1,1,0.7,1.7,1.7,1.7c0.9,0,1.5-0.7,1.5-1.7
		c0-0.4,0-0.9-0.1-1.3v-0.2c-0.3-3.6-0.3-7.4-0.1-11.2c0-0.3,0.1-0.4,0.4-0.4c1.1-0.1,2-0.3,2.9-0.4c10.8-2,20.7-6.1,29.2-12.1
		c0.3-0.2,0.4-0.2,0.7,0c9.5,6.7,20.3,10.9,32,12.5c0.4,0.1,0.4,0.1,0.4,0.5c0.2,5.2,0.1,10.4-0.5,15.6c-1,9.5-3.2,17.8-6.7,25.2
		C70,73.8,61.6,82.2,50.4,87c-0.3,0.1-0.6,0.2-0.9,0.1c-7.7-3.3-14.1-8.2-19.1-14.8c-5-6.5-8.6-14.3-10.8-23.6
		c-0.8-3.2-1.3-6.5-1.7-9.3c-0.2-1-0.9-1.6-1.8-1.5c-0.4,0.1-0.8,0.3-1.1,0.6c-0.3,0.4-0.4,0.8-0.3,1.3c1.1,8.1,3,15.2,5.8,21.6
		c0.3,0.7,0.5,1.1,0.4,1.3s-0.4,0.4-1.1,0.8l0,0c-2.5,1.4-4.6,2.9-6.4,4.7c-0.8,0.8-0.9,1.6-0.4,2.5c0.1,0.2,0.3,0.5,0.4,0.8
		c0.2,0.3,0.3,0.7,0.6,1c0.2,0.3,0.2,0.4-0.2,0.6c-1.5,1-3.1,2-4.6,3c-1,0.7-2.1,1.4-3.1,2.1C5.5,78.6,5,79,4.7,79.5l-0.1,0.1v0.9
		v0.1c0.3,0.7,0.8,1,1.3,1.3c0.8,0.5,1.7,0.9,2.5,1.4c1.3,0.7,2.6,1.4,3.8,2.1c0.3,0.2,0.4,0.3,0.4,0.7c0,2.4,0,4.9,0,7.2
		c0,0.8,0.3,1.4,0.8,1.7c0.5,0.3,1.2,0.2,1.9-0.2c4.8-2.8,9.7-5.7,14.2-8.4c1-0.6,1.2-1.3,0.7-2.4c-0.5-1-1-2-1.5-3
		c-0.1-0.2-0.1-0.3-0.1-0.3s0,0,0.2-0.1c0.8-0.3,1.7-0.7,2.6-1.1c0.4-0.2,0.6-0.1,1,0.2c4.6,4.6,10.1,8.2,16.3,10.8
		c0.8,0.3,1.4,0.3,2.2,0c5.4-2.2,10.4-5.4,14.8-9.3c0.2-0.2,0.5-0.5,0.7-0.7c0.4-0.5,0.9-1,1.4-1c0.6,0,1.2,0.3,1.9,0.7
		c0.3,0.2,0.6,0.3,0.9,0.4c0.1,0,0.1,0.1,0.2,0.1c0.2,0,0.2,0.1,0.2,0.1s0,0.1-0.1,0.3c-0.4,0.8-0.8,1.7-1.2,2.6l-0.2,0.4
		c-0.6,1.2-0.3,1.9,0.8,2.6c4.2,2.5,9.2,5.4,14.1,8.3c0.5,0.3,0.9,0.4,1.3,0.4c0.3,0,0.5-0.1,0.7-0.2c0.4-0.2,0.8-0.7,0.8-1.8v-0.5
		c0-2.2,0-4.4,0-6.6c0-0.4,0.1-0.5,0.4-0.7c2.1-1.1,4.2-2.3,6.4-3.5c1-0.6,1.3-1.2,1.3-1.6C95.5,79.7,95.3,79.1,94.3,78.4z
		 M84.2,85.6c0,0.3,0,0.5,0,0.9c0,1,0,2.1,0,3.1v1l-8.4-5c0.1,0,0.2,0,0.3-0.1c0.8-0.1,1.5-0.3,2.2-0.4c0.9-0.1,1.5-0.5,1.9-1.4
		c1-2,2.1-4.1,3.2-6.1c0.4-0.7,0.7-1.3,1.1-2l6.3,4.2l-1,0.6c-1,0.6-2,1.1-3,1.7c-0.3,0.1-0.5,0.3-0.7,0.4
		C84.2,83.5,84.1,83.6,84.2,85.6z M83.6,70.3c-1,2-2.1,4-3.1,6c-0.8,1.4-1.5,2.9-2.3,4.3c0,0.1-0.1,0.1-0.1,0.2c0,0,0,0.1-0.1,0.1
		c0,0-0.1,0-0.1-0.1c-2-1.6-4.4-2.9-7.6-4.3c3-3.6,5.4-7.1,7.2-10.7c0-0.1,0.1-0.1,0.1-0.1s0.1,0,0.1,0.1c2.4,1.3,4.3,2.6,5.8,3.9
		C83.8,69.9,83.8,69.9,83.6,70.3z M74.1,82.1c0.2,0,0.4,0.2,0.7,0.4l-0.9,0.1C73.9,82.4,74,82.2,74.1,82.1z M14.7,82.8
		c-1.3-0.7-2.6-1.4-4-2.2c-0.4-0.2-0.9-0.5-1.3-0.7l1.4-0.9c1.7-1.1,3.3-2.2,4.9-3.3h0.1v0.1c0,0.1,0,0.2,0.1,0.2l0.2,0.4
		c1.3,2.4,2.6,4.8,3.8,7.3c0.5,1,1.2,1.4,2.2,1.5c0.7,0.1,1.3,0.2,2,0.3c0.1,0,0.2,0,0.3,0.1l-8.4,5c0-0.4,0-0.9,0-1.3
		c0-1.5,0-2.8,0-4.2C16,84,15.6,83.3,14.7,82.8z M23.4,80c-0.2,0.1-0.3,0.3-0.5,0.4c-0.3,0.3-0.6,0.5-0.8,0.5
		c-0.2-0.1-0.3-0.5-0.5-0.8c-0.1-0.2-0.2-0.4-0.2-0.6c-0.4-0.8-0.9-1.7-1.3-2.5c-1.1-2.1-2.3-4.4-3.5-6.5c-0.2-0.4-0.2-0.6,0.2-0.9
		c1.5-1.3,3.3-2.5,5.6-3.8c0.1,0,0.1-0.1,0.1-0.1s0,0,0.1,0.1c1.9,3.7,4.3,7.3,7.2,10.8C27.8,77.4,25.5,78.5,23.4,80L23.4,80z
		 M26.3,82.6c-0.2,0-0.3,0-0.5-0.1c-0.1,0-0.3,0-0.4-0.1c0.2-0.2,0.5-0.4,0.7-0.4C26.1,82.2,26.2,82.5,26.3,82.6z"/>
	<path d="M77.9,26.7c-0.1-1.3-0.6-1.8-1.8-2c-3.8-0.5-7.3-1.2-10.6-2.4C60,20.4,55.4,18,51.4,15c-0.9-0.6-1.7-0.7-2.5,0
		c-0.7,0.6-1.4,1-2.1,1.5c-7,4.5-14.6,7.3-22.6,8.2c-1.3,0.2-1.8,0.6-1.8,2v0.2c-0.1,1.7-0.2,3.4-0.1,4.7c0,3.5,0.2,6.7,0.7,9.9
		c1.1,8.4,3.4,15.7,7.1,22.1c0.7,1.2,1.4,2.3,2.2,3.4c0.4,0.6,0.9,0.9,1.5,0.9c0.3,0,0.6-0.1,0.8-0.3c0.8-0.5,0.9-1.5,0.4-2.4
		c-0.1-0.1-0.2-0.3-0.3-0.4c0-0.1-0.1-0.1-0.1-0.2c-2.6-3.7-4.6-7.9-6.1-12.8c-2.1-6.8-3.1-14.1-3-22.3c0-0.9,0-1.4,0.2-1.6
		c0.2-0.2,0.7-0.3,1.6-0.4h0.1h0.1c8.3-1.5,15.8-4.5,22.4-9.1c0.3-0.2,0.4-0.2,0.7,0c7.1,4.9,15.1,8.1,23.9,9.4
		c0.4,0.1,0.5,0.1,0.5,0.5c0.1,2.7,0.1,5,0,7c-0.1,1.2,0.5,2,1.5,2c0.5,0,0.8-0.1,1.1-0.3c0.4-0.3,0.6-0.8,0.6-1.5
		C78.1,32.5,78.1,29.5,77.9,26.7z"/>
	<path d="M49.2,80.5c0.3,0.1,0.6,0.2,0.9,0.2c0.2,0,0.5,0,0.7-0.1c5.5-2.2,10.2-5.5,14-9.6c4.7-5.1,8.1-11.3,10.3-18.9
		c1-3.4,1.7-7,2.2-10.7l0,0c0-1-0.4-1.7-1.3-1.8c-0.9-0.2-1.6,0.3-1.9,1.3C74,41.1,74,41.4,74,41.6c-0.9,6.5-2.5,12-4.7,16.8
		c-4.1,8.8-10.4,15.1-18.7,18.8c-0.4,0.2-0.7,0.2-1.2,0c-4.2-1.9-8-4.4-11.1-7.6c-0.8-0.8-1.8-1-2.5-0.3c-0.3,0.3-0.5,0.7-0.5,1.1
		c0,0.5,0.2,1,0.7,1.5C39.8,75.5,44.2,78.5,49.2,80.5z"/>
	<path d="M40.6,55.8c0.7,0.7,1.3,1.3,2,2c1.3,1.3,2.6,1.9,4,1.9c1.3,0,2.7-0.6,4-1.9c4.7-4.7,9.4-9.4,14.1-14.1
		c0.3-0.3,0.7-0.7,1-1.1c1.5-2,1.2-5-0.8-6.6c-2.1-1.7-4.8-1.5-6.9,0.6l-0.3,0.3c-3.5,3.4-7,7-10.5,10.6c-0.2,0.2-0.4,0.3-0.5,0.3
		l0,0c-0.1,0-0.3-0.1-0.5-0.4c-0.8-0.8-1.6-1.6-2.4-2.4c-0.3-0.3-0.7-0.7-1-1c-1.1-1.1-2.2-1.6-3.6-1.6c-0.8,0-1.5,0.1-2.2,0.4
		c-1.5,0.7-2.5,2-2.8,3.5c-0.3,1.6,0.3,3.2,1.5,4.5C37.3,52.6,39,54.2,40.6,55.8z M60,39c0.1-0.1,0.3-0.3,0.4-0.4
		c0.8-0.6,1.8-0.6,2.4,0s0.6,1.6,0,2.3c-0.1,0.2-0.3,0.3-0.4,0.4l-0.1,0.1c-4.7,4.7-9.3,9.3-14,14c-1.3,1.3-2.1,1.3-3.4,0l-6.7-6.7
		c-0.7-0.7-0.9-1.3-0.7-2c0.2-0.8,0.9-1.2,1.8-1.2l0,0c0.3,0,0.7,0.2,1.2,0.8c0.6,0.6,1.3,1.3,1.9,1.9c0.9,0.9,1.8,1.8,2.7,2.7
		c1.1,1.1,1.9,1.1,2.9,0c2.7-2.7,5.3-5.3,8-8l3.8-3.8C59.9,39.1,59.9,39.1,60,39z"/>
</g>
</svg>
