<svg viewBox="0 0 96 96" xmlns="http://www.w3.org/2000/svg" xmlns:xlink="http://www.w3.org/1999/xlink" id="Icons_Dress" overflow="hidden"><path d="M81.5 77.8 57.7 36.2C57.3 35.4 57 34.6 57 33.7 57 33.3 57.1 32.8 57.2 32.4L60.3 20.9C60.4 20.4 60.9 20.1 61.4 20.2L69.7 21C70 21 70.2 20.9 70.2 20.6L72 12.5C72.1 12.3 71.9 12 71.7 11.9L64 9.1C62 8.4 59.9 8 57.8 8L57 8C56.4 8 56 8.4 56 9L56 10C56 14.4 52.4 18 48 18 43.6 18 40 14.4 40 10L40 9C40 8.4 39.6 8 39 8L38.2 8C36.1 8 34 8.4 32 9.1L24.4 11.9C24.2 12 24 12.2 24.1 12.5L25.9 20.6C26 20.8 26.2 21 26.4 21L34.7 20.2C35.2 20.2 35.6 20.5 35.8 20.9L38.9 32.4C39 32.8 39.1 33.3 39.1 33.7 39.1 34.6 38.9 35.4 38.4 36.2L14.5 77.8C14 78.7 14.2 79.8 15.1 80.4 21.3 84.9 33.7 88 48 88 62.3 88 74.7 84.9 80.9 80.4 81.7 79.8 82 78.7 81.5 77.8Z" fill="#262626"/></svg>