<svg viewBox="0 0 96 96" xmlns="http://www.w3.org/2000/svg" xmlns:xlink="http://www.w3.org/1999/xlink" id="Icons_FormalShirt" overflow="hidden"><path d="M53.371 25.257 61.418 12.742 56.524 8.664 49.197 16.908 53.371 25.257Z" fill="#262626"/><path d="M48 15.244 55.032 7.333 53.526 6.956C49.8978 6.04932 46.1022 6.04932 42.474 6.956L40.968 7.333Z" fill="#262626"/><path d="M46.803 16.908 39.476 8.664 34.582 12.742 42.629 25.257 46.803 16.908Z" fill="#262626"/><path d="M89.491 40.428 75.415 16.966C75.1486 16.5231 74.721 16.2006 74.222 16.066L63.522 13.166 54.1 27.817C53.916 28.1031 53.5992 28.276 53.259 28.276L53.205 28.276C52.846 28.2569 52.5249 28.0465 52.364 27.725L49 20.986 49 89 70 89 70 34.934C69.9917 34.8788 70.0298 34.8273 70.085 34.819 70.1402 34.8107 70.1917 34.8488 70.2 34.904L71 39.276 76.48 48.409C76.7644 48.8825 77.3787 49.0357 77.8521 48.7514 77.8551 48.7496 77.8581 48.7478 77.861 48.746L89.161 41.794C89.6263 41.5057 89.7734 40.8969 89.491 40.428ZM65 37.276 56 37.276 56 35.276 65 35.276Z" fill="#262626"/><path d="M47 89 47 20.986 43.632 27.723C43.4711 28.0445 43.15 28.2549 42.791 28.274L42.737 28.274C42.3968 28.274 42.08 28.1011 41.896 27.815L32.477 13.166 21.777 16.066C21.2784 16.2008 20.8512 16.5233 20.585 16.966L6.509 40.428C6.22714 40.8977 6.37561 41.5067 6.842 41.794L18.142 48.746C18.6125 49.0353 19.2284 48.8883 19.5176 48.4179 19.5194 48.4149 19.5212 48.412 19.523 48.409L25 39.276 25.806 34.904C25.8143 34.8488 25.8658 34.8107 25.921 34.819 25.9762 34.8273 26.0143 34.8788 26.006 34.934L26.006 89Z" fill="#262626"/></svg>