<svg viewBox="0 0 96 96" xmlns="http://www.w3.org/2000/svg" xmlns:xlink="http://www.w3.org/1999/xlink" id="Icons_StuffedToy" overflow="hidden"><path d="M72.719 71.28 66.87 67.937C68.5658 63.7631 68.9543 59.1726 67.984 54.773 69.384 54.363 70.684 53.932 71.792 53.491 75.6518 51.988 77.5624 47.6406 76.0594 43.7807 74.5564 39.9209 70.2089 38.0103 66.3491 39.5133 66.3059 39.5302 66.2629 39.5474 66.22 39.565 64.1275 40.3163 61.9899 40.9358 59.82 41.42 64.5306 38.3532 67.4115 33.1481 67.509 27.528 67.509 27.174 67.473 26.828 67.45 26.478 72.3951 24.0262 74.4164 18.0299 71.9646 13.0848 69.5129 8.13967 63.5165 6.11841 58.5714 8.57017 57.2667 9.21703 56.1191 10.1412 55.209 11.278 50.5539 9.61001 45.4641 9.61001 40.809 11.278 37.361 6.96725 31.0713 6.26787 26.7605 9.71588 22.4498 13.1639 21.7504 19.4536 25.1984 23.7644 26.11 24.9041 27.2602 25.8303 28.568 26.478 28.545 26.827 28.509 27.178 28.509 27.528 28.6068 33.149 31.4885 38.3549 36.2 41.422 34.0284 40.937 31.8892 40.3168 29.795 39.565 25.9494 38.0255 21.584 39.8949 20.0445 43.7405 18.505 47.5861 20.3744 51.9515 24.22 53.491 25.32 53.932 26.633 54.363 28.028 54.773 27.0577 59.1726 27.4462 63.7631 29.142 67.937L23.293 71.28C18.7367 73.8829 17.1531 79.6867 19.756 84.243 22.3589 88.7993 28.1626 90.3829 32.719 87.78L44.985 80.771C46.9841 81.1177 49.0279 81.1177 51.027 80.771L63.293 87.78C67.8493 90.3829 73.6531 88.7993 76.256 84.243 78.8589 79.6866 77.2753 73.8829 72.719 71.28ZM63.006 13.528C65.2118 13.5251 67.0024 15.3109 67.0053 17.5167 67.0067 18.599 66.5689 19.6355 65.792 20.389 64.5763 17.9927 62.8358 15.9015 60.7 14.271 61.3725 13.7891 62.1787 13.5293 63.006 13.528ZM30.22 20.389C28.6357 18.8566 28.5935 16.33 30.1259 14.7457 31.499 13.326 33.704 13.1242 35.312 14.271 33.1764 15.9017 31.4359 17.9929 30.22 20.389ZM38.006 26.528C38.006 25.4234 38.9014 24.528 40.006 24.528 41.1106 24.528 42.006 25.4234 42.006 26.528 42.006 27.6326 41.1106 28.528 40.006 28.528 38.9014 28.528 38.006 27.6326 38.006 26.528ZM48.006 40.528C44.306 40.528 41.3 37.842 41.3 34.528 41.3 31.214 44.3 28.528 48.006 28.528 51.712 28.528 54.712 31.214 54.712 34.528 54.712 37.842 51.709 40.528 48.006 40.528ZM56.006 28.528C54.9014 28.528 54.006 27.6326 54.006 26.528 54.006 25.4234 54.9014 24.528 56.006 24.528 57.1106 24.528 58.006 25.4234 58.006 26.528 58.006 27.6326 57.1106 28.528 56.006 28.528Z" fill="#262626"/><ellipse cx="48.006" cy="32.528" rx="2.735" ry="2.5" fill="#262626"/></svg>