<svg viewBox="0 0 96 96" xmlns="http://www.w3.org/2000/svg" xmlns:xlink="http://www.w3.org/1999/xlink" id="Icons_Ticket1_LTR" overflow="hidden"><rect x="65" y="51" width="4" height="8" fill="#262626"/><rect x="26" y="45" width="31" height="4" fill="#262626"/><rect x="26" y="53" width="19" height="4" fill="#262626"/><rect x="26" y="61" width="23" height="4" fill="#262626"/><path d="M86 50 89 50 89 32 7 32 7 50 10 50C12.4853 50 14.5 52.0147 14.5 54.5 14.5 56.9853 12.4853 59 10 59L7 59 7 78 89 78 89 60 86 60C83.2386 60 81 57.7614 81 55 81 52.2386 83.2386 50 86 50ZM83 65.584 83 72 69 72 69 64 65 64 65 72 13 72 13 64.563C18.5576 62.9074 21.7209 57.06 20.0653 51.5023 19.0535 48.1058 16.3966 45.4488 13 44.437L13 38 65 38 65 46 69 46 69 38 83 38 83 44.416C77.1546 46.0709 73.7576 52.1511 75.4125 57.9965 76.4529 61.6714 79.3251 64.5436 83 65.584Z" fill="#262626"/><path d="M73.5 24.9 74.2 28 80.3 28 78.3 17.8 27 28 57.7 28 73.5 24.9Z" fill="#262626"/></svg>