<svg width="35" height="36" xmlns="http://www.w3.org/2000/svg" xmlns:xlink="http://www.w3.org/1999/xlink" overflow="hidden"><defs><clipPath id="clip0"><rect x="1202" y="61" width="35" height="36"/></clipPath></defs><g clip-path="url(#clip0)" transform="translate(-1202 -61)"><path d="M11.3021 11.3021 7.29167 11.3021 7.29167 8.75 11.3021 8.75 11.3021 11.3021ZM16.7708 8.75 16.7708 11.3021 12.7604 11.3021 12.7604 8.75 16.7708 8.75ZM22.2396 8.75 22.2396 11.3021 18.2292 11.3021 18.2292 8.75 22.2396 8.75ZM27.7083 8.75 27.7083 11.3021 23.6979 11.3021 23.6979 8.75 27.7083 8.75ZM27.7083 15.3125 23.6979 15.3125 23.6979 12.7604 27.7083 12.7604 27.7083 15.3125ZM27.7083 18.4115 23.6979 18.776 23.6979 16.7708 27.7083 16.7708 27.7083 18.4115ZM11.3021 16.7708 11.3021 19.8698 7.29167 20.2344 7.29167 16.7708 11.3021 16.7708ZM11.3021 15.3125 7.29167 15.3125 7.29167 12.7604 11.3021 12.7604 11.3021 15.3125ZM16.7708 15.3125 12.7604 15.3125 12.7604 12.7604 16.7708 12.7604 16.7708 15.3125ZM18.2292 15.3125 18.2292 12.7604 22.2396 12.7604 22.2396 15.3125 18.2292 15.3125ZM16.7708 19.3958 12.7604 19.7604 12.7604 16.7708 16.7708 16.7708 16.7708 19.3958ZM18.2292 16.7708 22.2396 16.7708 22.2396 18.8854 18.2292 19.25 18.2292 16.7708ZM29.8958 20.4167 29.8958 6.5625 7.29167 6.5625 7.29167 6.19792C7.29167 4.375 5.83333 2.91667 4.01042 2.91667 3.39063 2.91667 2.91667 3.39063 2.91667 4.01042 2.91667 4.63021 3.39063 5.10417 4.01042 5.10417 4.63021 5.10417 5.10417 5.57812 5.10417 6.19792L5.10417 24.4271C5.10417 26.25 6.5625 27.7083 8.38542 27.7083L9.47917 27.7083 25.5208 27.7083 28.8021 27.7083C29.4219 27.7083 29.8958 27.2344 29.8958 26.6146 29.8958 25.9948 29.4219 25.5208 28.8021 25.5208L8.38542 25.5208C7.76562 25.5208 7.29167 25.0469 7.29167 24.4271L7.29167 22.4219 29.8958 20.4167Z" fill="#FFFFFF" transform="matrix(1 0 0 1.02857 1202 61)"/><path d="M11.6667 29.8958C11.6667 31.104 10.6873 32.0833 9.47917 32.0833 8.27104 32.0833 7.29167 31.104 7.29167 29.8958 7.29167 28.6877 8.27104 27.7083 9.47917 27.7083 10.6873 27.7083 11.6667 28.6877 11.6667 29.8958Z" fill="#FFFFFF" transform="matrix(1 0 0 1.02857 1202 61)"/><path d="M27.7083 29.8958C27.7083 31.104 26.729 32.0833 25.5208 32.0833 24.3127 32.0833 23.3333 31.104 23.3333 29.8958 23.3333 28.6877 24.3127 27.7083 25.5208 27.7083 26.729 27.7083 27.7083 28.6877 27.7083 29.8958Z" fill="#FFFFFF" transform="matrix(1 0 0 1.02857 1202 61)"/></g></svg>