<svg width="22" height="14" xmlns="http://www.w3.org/2000/svg" xmlns:xlink="http://www.w3.org/1999/xlink" overflow="hidden"><defs><clipPath id="clip0"><rect x="762" y="292" width="22" height="14"/></clipPath><clipPath id="clip1"><rect x="763" y="293" width="21" height="13"/></clipPath><clipPath id="clip2"><rect x="763" y="293" width="21" height="13"/></clipPath><clipPath id="clip3"><rect x="763" y="279" width="42" height="44"/></clipPath></defs><g clip-path="url(#clip0)" transform="translate(-762 -292)"><g clip-path="url(#clip1)"><g clip-path="url(#clip2)"><g clip-path="url(#clip3)"><path d="M19.3331 19.5869 18.0206 18.2744C18.216 17.5763 17.8084 16.8521 17.1103 16.6568 16.656 16.5296 16.1683 16.6562 15.8331 16.9881 14.9931 17.8631 12.7706 19.8363 10.2812 19.8363 7.79187 19.8363 5.57375 17.8456 4.73375 16.9881 4.21869 16.4781 3.38768 16.4821 2.87762 16.9972 2.54563 17.3324 2.41912 17.82 2.54625 18.2744L1.23375 19.5869C0.722715 20.1064 0.729571 20.9418 1.24906 21.4528 1.76855 21.9639 2.60397 21.957 3.115 21.4375L4.375 20.1775C4.68563 20.4137 5.02688 20.6544 5.39437 20.8906L4.57625 22.5225C4.2593 23.1679 4.52069 23.9482 5.1625 24.2725 5.34402 24.3651 5.54496 24.4131 5.74875 24.4125 6.24711 24.4135 6.70303 24.1321 6.92562 23.6862L7.7525 22.0281C8.15189 22.1663 8.56148 22.2731 8.9775 22.3475L8.9775 24.0625C8.9775 24.7874 9.56511 25.375 10.29 25.375 11.0149 25.375 11.6025 24.7874 11.6025 24.0625L11.6025 22.3562C12.02 22.2818 12.431 22.175 12.8319 22.0369L13.6587 23.695C13.8813 24.1409 14.3373 24.4222 14.8356 24.4212 15.0394 24.4219 15.2404 24.3739 15.4219 24.2812 16.0637 23.957 16.3251 23.1767 16.0081 22.5312L15.19 20.895C15.5575 20.6631 15.8988 20.4225 16.2094 20.1862L17.5 21.4375C18.0303 21.9317 18.8608 21.9023 19.355 21.372 19.8247 20.868 19.8247 20.0865 19.355 19.5825Z" fill="#7F7F7F" transform="matrix(1 0 0 1.01493 763 279.709)"/><path d="M40.74 19.5869 39.4275 18.2744C39.6228 17.5763 39.2153 16.8521 38.5172 16.6568 38.0629 16.5296 37.5753 16.6562 37.24 16.9881 36.4 17.8631 34.1775 19.8363 31.6925 19.8363 29.2075 19.8363 26.9937 17.8587 26.1537 17.0013 25.6387 16.4912 24.8077 16.4952 24.2976 17.0103 23.9656 17.3455 23.8391 17.8332 23.9662 18.2875L22.6537 19.6C22.1156 20.0857 22.0731 20.9156 22.5588 21.4537 23.0444 21.9919 23.8744 22.0344 24.4125 21.5487 24.4511 21.5138 24.4877 21.4767 24.5219 21.4375L25.7862 20.1731C26.0969 20.4094 26.4381 20.65 26.8056 20.8863L25.9875 22.5225C25.6705 23.1679 25.9319 23.9482 26.5738 24.2725 26.7553 24.3651 26.9563 24.4131 27.16 24.4125 27.6584 24.4135 28.1143 24.1321 28.3369 23.6862L29.1638 22.0281C29.5646 22.1663 29.9757 22.2731 30.3931 22.3475L30.3931 24.0625C30.3931 24.7874 30.9807 25.375 31.7056 25.375 32.4305 25.375 33.0181 24.7874 33.0181 24.0625L33.0181 22.3562C33.434 22.2813 33.8436 22.1745 34.2431 22.0369L35.07 23.695C35.2926 24.1409 35.7485 24.4222 36.2469 24.4212 36.4507 24.4219 36.6516 24.3739 36.8331 24.2812 37.4749 23.957 37.7363 23.1767 37.4194 22.5312L36.6012 20.895C36.9688 20.6631 37.31 20.4225 37.6206 20.1862L38.885 21.4375C39.4153 21.9317 40.2458 21.9023 40.74 21.372 41.2097 20.868 41.2097 20.0865 40.74 19.5825Z" fill="#7F7F7F" transform="matrix(1 0 0 1.01493 763 279.709)"/></g></g></g></g></svg>