<svg width="22" height="14" xmlns="http://www.w3.org/2000/svg" xmlns:xlink="http://www.w3.org/1999/xlink" overflow="hidden"><defs><clipPath id="clip0"><rect x="762" y="292" width="22" height="14"/></clipPath><clipPath id="clip1"><rect x="762" y="293" width="21" height="13"/></clipPath><clipPath id="clip2"><rect x="762" y="293" width="21" height="13"/></clipPath></defs><g clip-path="url(#clip0)" transform="translate(-762 -292)"><g clip-path="url(#clip1)"><g clip-path="url(#clip2)"><path d="M11.0688 15.6734C6.90692 15.6734 3.36491 19.2862 2.01452 20.858 1.67405 21.2663 1.69114 21.8644 2.05436 22.2527 3.43132 23.6828 6.94676 26.8307 11.0688 26.8307 15.1908 26.8307 18.7018 23.6828 20.0788 22.2571 20.4466 21.869 20.4637 21.2664 20.1186 20.858 18.7726 19.2862 15.2262 15.6734 11.0688 15.6734ZM8.46097 18.0288C6.68164 19.4645 6.40302 22.0708 7.83869 23.8501 8.08167 24.1512 8.36565 24.4168 8.68235 24.6391 6.85795 23.9456 5.19892 22.8778 3.81209 21.5044 5.11807 20.0514 6.69785 18.8704 8.46097 18.0288ZM13.4552 24.6391C15.3268 23.3216 15.7759 20.7364 14.4585 18.8649 14.2378 18.5514 13.9746 18.27 13.6766 18.0288 15.4393 18.8711 17.0189 20.0521 18.3255 21.5044 16.9378 22.8768 15.279 23.9444 13.4552 24.6391Z" fill="#7F7F7F" transform="matrix(1 0 0 1.01491 762 277.614)"/><path d="M40.4852 20.858C39.1569 19.2862 35.6149 15.6734 31.4353 15.6734 27.2558 15.6734 23.7315 19.2862 22.3811 20.858 22.0406 21.2663 22.0577 21.8644 22.4209 22.2527 23.7979 23.6828 27.3133 26.8307 31.4353 26.8307 35.5573 26.8307 39.0683 23.6828 40.4453 22.2571 40.8131 21.869 40.8303 21.2664 40.4852 20.858ZM28.8275 18.0288C27.0482 19.4645 26.7696 22.0708 28.2052 23.8501 28.4482 24.1512 28.7322 24.4168 29.0489 24.6391 27.2245 23.9456 25.5655 22.8778 24.1786 21.5044 25.4846 20.0514 27.0644 18.8704 28.8275 18.0288ZM33.8218 24.6391C35.6933 23.3216 36.1425 20.7364 34.825 18.8649 34.6043 18.5514 34.3412 18.27 34.0431 18.0288 35.8058 18.8711 37.3855 20.0521 38.692 21.5044 37.3043 22.8768 35.6456 23.9444 33.8218 24.6391Z" fill="#7F7F7F" transform="matrix(1 0 0 1.01491 762 277.614)"/></g></g></g></svg>