<svg width="28" height="28" viewBox="0 0 28 28" xmlns="http://www.w3.org/2000/svg" xmlns:xlink="http://www.w3.org/1999/xlink" overflow="hidden"><defs></defs><g><path d="M6.4 8C6.4 8 8.8 8 9.6 8 10.1 8 10.3 8 10.9 9.4 11.6 10.8 14.3 16.9 14.3 16.9 14.3 16.9 19.5 12 16.3 9.1 15.2 8 16.9 8 16.9 8L19.3 8C19.3 8 20.4 8.3 20.6 9.1 20.8 10 21.2 12.1 19.3 15.7 17.4 19.3 14.6 22.6 13 22.1 11.4 21.6 12.5 19.7 6.4 8.7 6 8 6.4 8 6.4 8Z" fill="#7F7F7F"/></g><circle cx="14" cy="14" r="12.9" stroke="#7F7F7F" stroke-width="2.2" stroke-miterlimit="10" fill="none"/></svg>