<?xml version="1.0" encoding="utf-8"?>
<!-- Generator: Adobe Illustrator 21.0.0, SVG Export Plug-In . SVG Version: 6.00 Build 0)  -->
<svg version="1.1" id="Layer_1" xmlns="http://www.w3.org/2000/svg" xmlns:xlink="http://www.w3.org/1999/xlink" x="0px" y="0px"
	 viewBox="0 0 510.2 129.9" style="enable-background:new 0 0 510.2 129.9;" xml:space="preserve">
<style type="text/css">
	.st0{fill:url(#SVGID_1_);}
	.st1{fill:url(#SVGID_2_);}
	.st2{fill:url(#SVGID_3_);}
	.st3{fill:url(#SVGID_4_);}
	.st4{fill:url(#SVGID_5_);}
	.st5{fill:url(#SVGID_6_);}
</style>
<linearGradient id="SVGID_1_" gradientUnits="userSpaceOnUse" x1="267.9342" y1="29.2668" x2="267.9342" y2="136.2981">
	<stop  offset="0" style="stop-color:#8C37F6"/>
	<stop  offset="1" style="stop-color:#261239"/>
</linearGradient>
<path class="st0" d="M226.8,17.4H264c27.2,0,45.1,17.9,45.1,45.7c0,27.3-17.4,48-46.1,48h-36.3V17.4z M247,94.7h15.2
	c17.9,0,26-13.5,26-31.7c0-15.4-7.5-29.4-25.8-29.4H247V94.7z"/>
<linearGradient id="SVGID_2_" gradientUnits="userSpaceOnUse" x1="364.9504" y1="29.2668" x2="364.9504" y2="136.2981">
	<stop  offset="0" style="stop-color:#8C37F6"/>
	<stop  offset="1" style="stop-color:#261239"/>
</linearGradient>
<path class="st1" d="M345.8,17.4v55.7c0,18.1,9.2,23.4,19.4,23.4c11.6,0,18.8-6.3,18.8-23.4V17.4h20.4v54.8
	c0,32.1-18.8,40.2-39.4,40.2c-21.2,0-39.4-8.6-39.4-39.8V17.4H345.8z"/>
<linearGradient id="SVGID_3_" gradientUnits="userSpaceOnUse" x1="456.0572" y1="29.2668" x2="456.0572" y2="136.2981">
	<stop  offset="0" style="stop-color:#8C37F6"/>
	<stop  offset="1" style="stop-color:#261239"/>
</linearGradient>
<path class="st2" d="M438.3,83.6c2.2,9.4,8.8,13.6,19.7,13.6c10.9,0,15.5-4.3,15.5-11.1c0-7.7-4.5-11-20.5-14.7
	c-25.5-6-31.8-15.4-31.8-28c0-16.3,12.2-27.3,34.4-27.3c24.9,0,34.8,13.3,36.1,27h-20.4C470.3,37.2,467.1,31,455,31
	c-8.3,0-13.2,3.4-13.2,10.1c0,6.5,3.9,9.2,19.2,12.6c27.2,6.5,33.2,16.6,33.2,29.9c0,17-12.9,28.8-37.6,28.8
	c-23.8,0-36.4-11.7-38.6-28.8H438.3z"/>
<g>
	
		<linearGradient id="SVGID_4_" gradientUnits="userSpaceOnUse" x1="58.8794" y1="23.0705" x2="58.8794" y2="130.1019" gradientTransform="matrix(0.9976 6.932619e-02 -6.932619e-02 0.9976 8.871 2.0911)">
		<stop  offset="0" style="stop-color:#8C37F6"/>
		<stop  offset="1" style="stop-color:#261239"/>
	</linearGradient>
	<path class="st3" d="M111.6,26c-0.9-4-5.6-5.7-6.7-6l-16,0.2c-1.5,0-3.3,0.3-3.8,0.7c0.1,0,0.4,1,2.5,2.9
		c5.1,4.7,7.6,10.4,7.7,17.1c0,18.7-20.6,38.2-21.5,39L71.5,82l-1.3-2.9c0,0-18.6-41.4-23-51c-3.7-8.2-4.6-8.2-6.9-8.1
		c-4.7,0.1-16.8,0-20.9-0.1c0.1,0.3,0.3,0.8,0.6,1.4c22.4,41.4,30.5,64.1,34.8,76.3c3.6,10,4.5,12.4,8,13.6c8.3,2.8,27-16.8,40-42
		C115.7,44.3,112.7,31,111.6,26z"/>
</g>
<linearGradient id="SVGID_5_" gradientUnits="userSpaceOnUse" x1="119.5502" y1="69.363" x2="191.861" y2="69.363">
	<stop  offset="0" style="stop-color:#E63A57"/>
	<stop  offset="1" style="stop-color:#DE092D"/>
</linearGradient>
<path class="st4" d="M187.8,86.1c-6.5,7.2-15.8,11.4-25.6,11.4c-19,0-34.4-15.4-34.4-34.4c0-9.9,4.3-19.4,11.8-25.9l-3.3-4.1
	c-10.5,7.5-16.7,19.7-16.7,32.6c0,22.1,18,40.1,40.1,40.1c12.6,0,24.7-6.1,32.2-16.2L187.8,86.1z"/>
<linearGradient id="SVGID_6_" gradientUnits="userSpaceOnUse" x1="140.9167" y1="67.285" x2="214.4905" y2="67.285">
	<stop  offset="0" style="stop-color:#3A37CC"/>
	<stop  offset="1" style="stop-color:#5147FE"/>
</linearGradient>
<path class="st5" d="M165.1,17.9c-8.5,0-16.8,2.2-24.2,6.3l1.2,2.4c5.4-2.2,11.1-3.4,16.9-3.4c24.5,0,44.4,19.9,44.4,44.4
	S183.5,112,159,112c-4.1,0-8.3-0.6-12.3-1.7l-0.9,2.5c6.1,2.6,12.6,3.9,19.3,3.9c27.2,0,49.4-22.1,49.4-49.4
	C214.5,40.1,192.3,17.9,165.1,17.9z"/>
</svg>
