<?xml version="1.0" encoding="utf-8"?>
<!-- Generator: Adobe Illustrator 21.0.0, SVG Export Plug-In . SVG Version: 6.00 Build 0)  -->
<svg version="1.1" id="Layer_1" xmlns="http://www.w3.org/2000/svg" xmlns:xlink="http://www.w3.org/1999/xlink" x="0px" y="0px"
	 viewBox="0 0 269.9 68.7" style="enable-background:new 0 0 269.9 68.7;" xml:space="preserve">
<style type="text/css">
	.st0{fill:#FFFFFF;}
</style>
<g>
	<path class="st0" d="M118.7,7.7h20.4c14.9,0,24.7,9.8,24.7,25c0,15-9.5,26.3-25.3,26.3h-19.9V7.7z M129.8,50.1h8.3
		c9.8,0,14.2-7.4,14.2-17.4c0-8.4-4.1-16.1-14.2-16.1h-8.4V50.1z"/>
	<path class="st0" d="M183.9,7.7v30.5c0,9.9,5.1,12.8,10.7,12.8c6.3,0,10.3-3.4,10.3-12.8V7.7h11.2v30c0,17.6-10.3,22.1-21.6,22.1
		c-11.6,0-21.6-4.7-21.6-21.8V7.7H183.9z"/>
	<path class="st0" d="M234.7,44c1.2,5.1,4.8,7.5,10.8,7.5c6,0,8.5-2.4,8.5-6.1c0-4.2-2.5-6-11.3-8c-14-3.3-17.4-8.4-17.4-15.3
		c0-8.9,6.7-15,18.8-15c13.6,0,19.1,7.3,19.8,14.8h-11.2c-0.6-3.2-2.3-6.6-8.9-6.6c-4.5,0-7.2,1.9-7.2,5.5c0,3.6,2.2,5.1,10.5,6.9
		c14.9,3.6,18.2,9.1,18.2,16.4c0,9.3-7.1,15.8-20.6,15.8c-13,0-20-6.4-21.2-15.8H234.7z"/>
	<g>
		<path class="st0" d="M54,10.8c-0.7-2.2-3.3-2.9-3.9-3l-8.7,0.7c-0.8,0-1.8,0.3-2,0.5c0.1,0,0.3,0.5,1.5,1.5c3,2.4,4.6,5.4,4.8,9
			c0.7,10.3-9.8,21.7-10.3,22.1l-1.2,1.3l-0.8-1.5c0,0-11.7-21.9-14.5-27c-2.4-4.3-2.8-4.3-4.1-4.2c-2.6,0.2-9.2,0.6-11.4,0.7
			c0.1,0.2,0.2,0.4,0.4,0.7c13.9,21.8,19.1,33.9,21.9,40.4c2.3,5.3,2.9,6.6,4.9,7.1c4.6,1.2,14.1-10.2,20.3-24.5
			C56.9,20.6,54.8,13.5,54,10.8z"/>
	</g>
	<path class="st0" d="M97.3,45.4c-3.6,4-8.7,6.2-14,6.2c-10.4,0-18.9-8.5-18.9-18.9c0-5.4,2.4-10.6,6.5-14.2l-1.8-2.3
		c-5.7,4.1-9.2,10.8-9.2,17.9c0,12.1,9.9,22,22,22c6.9,0,13.5-3.3,17.7-8.9L97.3,45.4z"/>
	<path class="st0" d="M84.9,8c-4.6,0-9.2,1.2-13.3,3.5l0.6,1.3c3-1.2,6.1-1.8,9.3-1.8c13.4,0,24.3,10.9,24.3,24.3S95,59.6,81.5,59.6
		c-2.3,0-4.5-0.3-6.7-0.9L74.3,60c3.3,1.4,6.9,2.1,10.6,2.1C99.8,62.2,112,50,112,35.1C112,20.2,99.8,8,84.9,8z"/>
</g>
</svg>
