<?xml version="1.0" encoding="utf-8"?>
<!-- Generator: Adobe Illustrator 21.0.0, SVG Export Plug-In . SVG Version: 6.00 Build 0)  -->
<svg version="1.1" id="Layer_1" xmlns="http://www.w3.org/2000/svg" xmlns:xlink="http://www.w3.org/1999/xlink" x="0px" y="0px"
	 viewBox="0 0 510.2 129.9" style="enable-background:new 0 0 510.2 129.9;" xml:space="preserve">
<style type="text/css">
	.st0{fill:#FFFFFF;}
</style>
<path class="st0" d="M226.6,17h37.3C291,17,309,34.9,309,62.7c0,27.3-17.4,48-46.1,48h-36.3V17z M246.9,94.4h15.2
	c17.9,0,26-13.5,26-31.7c0-15.4-7.5-29.4-25.8-29.4h-15.4V94.4z"/>
<path class="st0" d="M345.7,17v55.7c0,18.1,9.2,23.4,19.4,23.4c11.6,0,18.8-6.3,18.8-23.4V17h20.4v54.8c0,32.1-18.8,40.2-39.4,40.2
	c-21.2,0-39.4-8.6-39.4-39.8V17H345.7z"/>
<path class="st0" d="M438.3,83.2c2.2,9.4,8.8,13.6,19.7,13.6c10.9,0,15.5-4.4,15.5-11.1c0-7.8-4.5-11-20.5-14.7
	c-25.6-6-31.8-15.4-31.8-28c0-16.3,12.2-27.3,34.4-27.3c24.9,0,34.8,13.3,36.2,27.1h-20.4c-1.1-5.8-4.2-12.1-16.3-12.1
	c-8.3,0-13.2,3.4-13.2,10.1c0,6.5,3.9,9.2,19.2,12.6c27.2,6.5,33.2,16.6,33.2,29.9c0,17-12.9,28.8-37.7,28.8
	c-23.8,0-36.4-11.7-38.6-28.8H438.3z"/>
<g>
	<path class="st0" d="M108.5,22.5c-1.2-3.9-6-5.3-7.1-5.6l-15.9,1.4c-1.5,0.1-3.3,0.5-3.7,0.9c0.1,0,0.5,1,2.7,2.8
		c5.4,4.3,8.4,9.9,8.8,16.5C94.5,57.2,75.3,78,74.4,78.9l-2.1,2.3l-1.5-2.8c0,0-21.4-40-26.5-49.3c-4.3-7.9-5.2-7.8-7.4-7.6
		c-4.7,0.4-16.8,1.1-20.8,1.4c0.2,0.3,0.4,0.8,0.7,1.3C42.1,63.9,51.7,86,56.9,97.9c4.2,9.7,5.4,12.1,8.9,13
		c8.5,2.2,25.8-18.6,37-44.7C113.9,40.5,109.9,27.5,108.5,22.5z"/>
</g>
<path class="st0" d="M187.6,85.7c-6.5,7.2-15.9,11.4-25.6,11.4c-19,0-34.5-15.5-34.5-34.5c0-9.9,4.3-19.4,11.8-25.9l-3.3-4.1
	c-10.5,7.5-16.7,19.7-16.7,32.6c0,22.1,18,40.1,40.1,40.1c12.6,0,24.7-6.1,32.2-16.2L187.6,85.7z"/>
<path class="st0" d="M164.9,17.5c-8.5,0-16.9,2.2-24.2,6.4l1.2,2.4c5.4-2.2,11.1-3.4,17-3.4c24.5,0,44.4,19.9,44.4,44.4
	s-19.9,44.4-44.4,44.4c-4.1,0-8.3-0.6-12.3-1.7l-0.9,2.5c6.1,2.6,12.6,3.9,19.3,3.9c27.2,0,49.4-22.2,49.4-49.4
	C214.3,39.7,192.2,17.5,164.9,17.5z"/>
</svg>
