<svg width="888" height="618.106" viewBox="0 0 888 618.106" xmlns="http://www.w3.org/2000/svg" xmlns:xlink="http://www.w3.org/1999/xlink" id="ba65d029-7b6e-4d16-9739-50ea7099b679" overflow="hidden"><path d="M897.957 235.99 829.454 236.657C826.235 220.806 815.416 179.215 825.159 167.87 826.082 159 833.82 152.426 842.723 152.95L842.723 152.95C853.34 136.33 871.025 138.825 882.978 149.205 895.007 153.356 899.543 160.73 897.957 170.737 906.865 178.535 908.509 188.022 904.51 198.822Z" fill="#2F2E41" transform="translate(-156 -140.947)"/><path d="M891.362 278.189 841.94 271.346 832.055 256.9C845.671 247.868 850.489 235.253 844.221 218.122L878.436 217.362C876.833 232.617 881.878 244.428 895.924 251.577Z" fill="#FFB9B9" transform="translate(-156 -140.947)"/><path d="M830.255 723.966 828.365 749.802C828.034 754.332 831.438 758.273 835.968 758.604 836.333 758.631 836.7 758.633 837.065 758.611L850.335 757.807C852.648 757.667 854.408 755.678 854.268 753.365 854.252 753.108 854.213 752.853 854.15 752.603L846.784 723.14Z" fill="#E6E6E6" transform="translate(-156 -140.947)"/><path d="M873.216 723.14 865.85 752.603C865.288 754.85 866.654 757.128 868.902 757.69 869.152 757.752 869.408 757.791 869.665 757.807L882.935 758.611C887.469 758.885 891.367 755.433 891.642 750.899 891.664 750.533 891.661 750.167 891.635 749.801L889.745 723.966Z" fill="#E6E6E6" transform="translate(-156 -140.947)"/><path d="M734.602 586.606 716.694 584.809 698.866 394.239 692.128 584.195 674.534 583.565 644.881 320.485 758.172 320.485 734.602 586.606Z" fill="#1E1E1E"/><circle cx="707.229" cy="55.125" r="34.2155" fill="#FFB9B9"/><path d="M930.9 467.515 792.517 469.036C813.054 390.855 825.339 318.231 803.922 268.305L838.138 251.577C854.636 268.785 873.009 267.011 892.883 250.057L925.578 258.42C919.978 323.891 922.488 394.011 930.9 467.515Z" fill="#1E1E1E" transform="translate(-156 -140.947)"/><path d="M754.5 386.919 840.419 421.134 859.628 426.784C863.149 427.819 866.843 425.805 867.878 422.284 867.904 422.197 867.928 422.109 867.95 422.02L867.95 422.02C868.736 418.875 867.138 415.621 864.167 414.321L844.221 408.208 784.153 373.232 796.699 340.157 770.467 326.091Z" fill="#FFB9B9" transform="translate(-156 -140.947)"/><path d="M755.26 324.57C771.607 330.948 784.609 341.832 794.798 356.505L826.733 310.124 803.922 268.305Z" fill="#1E1E1E" transform="translate(-156 -140.947)"/><path d="M901.792 190.527C887.905 186.949 874.252 186.457 860.979 190.996 852.525 195.091 842.371 194.713 831.08 191.339L831.08 157.203 892.039 158.828Z" fill="#2F2E41" transform="translate(-156 -140.947)"/><path d="M840.134 347.053C834.54 347.059 830.006 351.593 830 357.187L834 440.919C834.006 446.513 838.54 451.047 844.134 451.053L889.866 451.053C895.46 451.047 899.994 446.513 900 440.919L904 357.187C903.994 351.593 899.46 347.059 893.866 347.053Z" fill="#3F3D56" transform="translate(-156 -140.947)"/><path d="M969.89 380.593 895 410.413 889.35 412.663C889.17 412.733 888.99 412.793 888.8 412.853L869.87 418.423C867.45 419.133 864.1 415.873 862.14 413.623 860.135 411.382 860.067 408.013 861.98 405.693 862.242 405.391 862.529 405.114 862.84 404.863 863.57 404.295 864.429 403.917 865.34 403.763L884.25 400.043C884.928 399.91 885.58 399.667 886.18 399.323L895 394.183 940.79 367.523C943.42 365.994 944.558 362.788 943.48 359.943L934.74 336.893C933.631 333.976 934.86 330.688 937.61 329.213L952.09 321.453C955.11 319.832 958.872 320.966 960.493 323.985 960.726 324.418 960.906 324.877 961.03 325.353L973.6 373.233C974.4 376.271 972.808 379.429 969.89 380.593Z" fill="#FFB9B9" transform="translate(-156 -140.947)"/><path d="M974.24 316.206C957.893 322.584 944.891 333.468 934.702 348.141L902.767 301.76 925.578 258.42Z" fill="#1E1E1E" transform="translate(-156 -140.947)"/><path d="M886 226.526C871.032 232.752 855.337 232.499 839 226.526 843.754 218.412 836.648 212.057 833 203.866L894 202.053C889.335 209.169 882.452 217.576 886 226.526Z" fill="#FFFFFF" transform="translate(-156 -140.947)"/><path d="M737.354 62.46 736.646 61.753 737.646 60.753 743.62 53.781 744.38 54.431 738.38 61.431 737.354 62.46Z" fill="#FFFFFF"/><rect x="831" y="198.148" width="1.00054" height="7.81025" fill="#FFFFFF" transform="matrix(0.640184 -0.768221 0.768221 0.640184 -12.0349 570.531)"/><rect x="880.471" y="217.303" width="19.5576" height="1.0002" fill="#FFFFFF" transform="matrix(0.537 -0.84358 0.84358 0.537 72.4494 710.894)"/><rect x="834.25" y="208.024" width="1.0002" height="19.5576" fill="#FFFFFF" transform="matrix(0.843662 -0.536875 0.536875 0.843662 -142.43 341.261)"/><path d="M897 392.768 897 410.885 890.693 413.397C890.492 413.475 890.291 413.542 890.079 413.609L868.949 419.826C866.248 420.618 862.508 416.98 860.32 414.468 858.082 411.967 858.006 408.206 860.142 405.616 860.434 405.28 860.755 404.97 861.102 404.69 861.916 404.056 862.875 403.634 863.892 403.462L885 399.31C885.758 399.161 886.485 398.889 887.155 398.506Z" fill="#FFFFFF" transform="translate(-156 -140.947)"/><path d="M906.14 328.149 902.526 328.149C902.526 277.038 892.003 241.42 881.747 241.42L880.844 237.806C890.041 237.806 895.904 252.63 899.203 265.067 903.677 281.926 906.14 304.329 906.14 328.149Z" fill="#3F3D56" transform="translate(-156 -140.947)"/><path d="M823.025 315.501 819.411 315.501C819.411 268.692 830.007 239.613 845.61 239.613L844.707 243.227C833.914 243.227 823.025 265.575 823.025 315.501Z" fill="#3F3D56" transform="translate(-156 -140.947)"/><circle cx="748.333" cy="188.105" r="9.03425" fill="#3F3D56"/><path d="M808.57 337.183 804.956 337.183C804.956 324.231 812.251 313.694 821.218 313.694L821.218 317.308C814.244 317.308 808.57 326.224 808.57 337.183Z" fill="#3F3D56" transform="translate(-156 -140.947)"/><path d="M837.479 337.183 833.866 337.183C833.866 326.224 828.192 317.308 821.218 317.308L821.218 313.694C830.185 313.694 837.479 324.231 837.479 337.183Z" fill="#3F3D56" transform="translate(-156 -140.947)"/><circle cx="679.673" cy="197.14" r="3.6137" fill="#3F3D56"/><circle cx="650.763" cy="197.14" r="3.6137" fill="#3F3D56"/><path d="M371.271 216.644 307.805 227.392C304.557 227.946 301.417 225.954 300.534 222.779 295.949 206.23 286.362 184.641 295.67 173.803 296.655 164.331 304.919 157.311 314.426 157.87L314.426 157.87C325.763 140.123 344.648 142.787 357.411 153.871 370.257 158.304 375.1 166.178 373.406 176.864 378.956 181.721 381.865 187.192 382.478 193.198 383.067 199.958 380.715 206.644 376.025 211.548Z" fill="#2F2E41" transform="translate(-156 -140.947)"/><path d="M361.403 266.609 312.203 263.715C317.025 252.648 318.951 241.992 317.026 231.88L353.686 231.88C353.602 239.644 357.466 253.074 361.403 266.609Z" fill="#9F616A" transform="translate(-156 -140.947)"/><path d="M302.18 721.236 300.162 748.824C299.808 753.661 303.442 757.869 308.28 758.223 308.67 758.252 309.061 758.254 309.452 758.231L323.622 757.372C326.091 757.222 327.971 755.099 327.821 752.629 327.805 752.355 327.763 752.082 327.696 751.815L319.83 720.353Z" fill="#E6E6E6" transform="translate(-156 -140.947)"/><path d="M348.055 720.353 340.189 751.815C339.589 754.215 341.049 756.647 343.449 757.247 343.716 757.314 343.988 757.356 344.263 757.372L358.433 758.231C363.275 758.524 367.437 754.837 367.731 749.996 367.754 749.605 367.752 749.214 367.724 748.824L365.705 721.236Z" fill="#E6E6E6" transform="translate(-156 -140.947)"/><path d="M210.62 584.119 191.498 582.2 172.46 378.701 165.265 581.544 146.478 580.871 114.813 299.944 235.79 299.944 210.62 584.119Z" fill="#1E1E1E"/><circle cx="180.323" cy="66.1071" r="36.5367" fill="#9F616A"/><path d="M377.502 189.6C362.673 187.017 348.093 186.663 333.92 189.939 324.892 192.894 314.05 192.622 301.993 190.187L301.993 165.548 367.087 166.721Z" fill="#2F2E41" transform="translate(-156 -140.947)"/><path d="M360.639 236.37C344.655 243.019 327.895 242.749 310.45 236.37 315.526 227.706 307.938 220.92 304.043 212.173L369.181 210.237C364.2 217.836 356.85 226.813 360.639 236.37Z" fill="#FFFFFF" transform="translate(-156 -140.947)"/><rect x="301.941" y="206.067" width="1.00054" height="8.33965" fill="#FFFFFF" transform="matrix(0.640179 -0.768226 0.768226 0.640179 -208.685 167.044)"/><rect x="354.735" y="226.556" width="20.8847" height="1.0002" fill="#FFFFFF" transform="matrix(0.537 -0.84358 0.84358 0.537 -178.464 272.236)"/><rect x="305.412" y="216.614" width="1.0002" height="20.8847" fill="#FFFFFF" transform="matrix(0.84366 -0.53687 0.53687 0.84366 -230.075 58.7858)"/><path d="M266.861 373.693 238.885 356.328 262.744 286.449C265.405 279.238 270.502 273.184 277.153 269.333L285.191 264.68 285.89 335.175Z" fill="#1E1E1E" transform="translate(-156 -140.947)"/><path d="M387.789 407.631 383.65 372.179C383.429 353.466 386.612 335.374 394.204 318.704L398.062 266.609 355.615 249.245C355.485 250.11 355.374 250.974 355.25 251.839L335.356 261.786 315.954 257.376 316.062 251.174 277.473 268.539C290.234 327.867 283.274 389.477 261.329 462.248L312.166 476.149 312.589 451.738 357.896 448.502C358.362 456.422 358.737 464.201 358.955 471.807 384.52 481.219 385.398 481.063 408.691 467.587 399.415 448.084 392.07 427.79 387.789 407.631Z" fill="#1E1E1E" transform="translate(-156 -140.947)"/><path d="M297.051 224.063 271.004 215.381 229.34 166.878 242.062 125.663 299.945 206.699 297.051 224.063Z" fill="#1E1E1E"/><path d="M371.419 402.56C372.307 406.454 376.178 408.896 380.074 408.019L402.185 403.012 398.989 388.899 376.878 393.905C372.981 394.788 370.537 398.663 371.419 402.56Z" fill="#E6E6E6" transform="translate(-156 -140.947)"/><path d="M391.309 386.234 403.851 409.387C424.945 403.504 443.226 384.956 460.769 363.081L455.945 347.646 426.039 355.363Z" fill="#1E1E1E" transform="translate(-156 -140.947)"/><path d="M71.79 172.661 95.866 176.96 150.897 255.207 121.662 248.328 71.79 172.661Z" fill="#E6E6E6"/><path d="M223.52 312.65C222.389 312.667 221.486 313.598 221.503 314.728 221.509 315.118 221.626 315.497 221.84 315.823L273.279 393.869C273.566 394.305 274.009 394.615 274.518 394.734L298.451 400.365C299.55 400.624 300.651 399.943 300.909 398.844 301.043 398.275 300.927 397.677 300.591 397.199L244.114 316.896C243.805 316.454 243.333 316.153 242.801 316.06L223.906 312.685C223.778 312.662 223.649 312.65 223.52 312.65Z" fill="#3F3D56" transform="translate(-156 -140.947)"/><path d="M255.608 368.452 257.037 382.852 279.597 380.613C283.574 380.218 286.477 376.675 286.083 372.698 285.688 368.722 282.144 365.818 278.168 366.213Z" fill="#E6E6E6" transform="translate(-156 -140.947)"/><path d="M235.991 366.784C236.059 377.005 244.357 385.258 254.578 385.269L258.288 385.269 260.988 362.764 238.628 354.714Z" fill="#1E1E1E" transform="translate(-156 -140.947)"/><path d="M211.399 71.78 210.692 71.073 211.76 70.005 218.141 62.558 218.9 63.208 212.493 70.683 211.399 71.78Z" fill="#FFFFFF"/><rect x="0" y="616.106" width="888" height="2" fill="#3F3D56"/><path d="M495 756.053 705 756.053 705 501.337C705 487.849 691.715 476.876 675.386 476.876L524.614 476.876C508.285 476.876 495 487.849 495 501.337Z" fill="#E6E6E6" transform="translate(-156 -140.947)"/><path d="M511 745.52 689 745.52 689 529.617C689 518.185 677.739 508.884 663.898 508.884L536.102 508.884C522.26 508.884 511 518.185 511 529.617Z" fill="#FFFFFF" transform="translate(-156 -140.947)"/><path d="M493.414 457.053C488.223 457.053 484 460.541 484 464.828L484 487.272C484 491.559 488.223 495.047 493.414 495.047L706.587 495.047C711.777 495.047 716 491.559 716 487.272L716 464.828C716 460.541 711.777 457.053 706.587 457.053Z" fill="#3F3D56" transform="translate(-156 -140.947)"/><path d="M537.181 717.836C532.108 717.85 527.999 721.959 527.984 727.032L527.984 727.032C527.999 732.105 532.108 736.214 537.181 736.229L554.395 736.229 554.395 717.836Z" fill="#3F3D56" transform="translate(-156 -140.947)"/><path d="M570.194 717.836 553.452 717.836 553.452 736.229 570.194 736.229C575.267 736.214 579.376 732.105 579.391 727.032L579.391 727.032C579.376 721.959 575.267 717.85 570.194 717.836Z" fill="#1E1E1E" transform="translate(-156 -140.947)"/><path d="M576.196 720.088C577.646 721.751 578.446 723.882 578.448 726.089L578.448 726.089C578.433 731.162 574.324 735.271 569.251 735.286L553.452 735.286 553.452 736.229 570.194 736.229C575.267 736.214 579.376 732.105 579.391 727.032L579.391 727.032C579.387 724.363 578.22 721.828 576.196 720.088Z" opacity="0.2" transform="translate(-156 -140.947)"/><path d="M614.861 579.31C611.371 575.628 605.563 575.457 601.861 578.926L601.861 578.926C598.18 582.416 598.008 588.224 601.477 591.926L613.285 604.452 626.669 591.836Z" fill="#3F3D56" transform="translate(-156 -140.947)"/><path d="M637.507 603.332 626.022 591.149 612.638 603.766 624.122 615.949C627.613 619.63 633.421 619.802 637.123 616.333L637.123 616.333C640.804 612.842 640.975 607.034 637.507 603.332Z" fill="#1E1E1E" transform="translate(-156 -140.947)"/><path d="M639.984 609.244C639.769 611.44 638.766 613.484 637.162 614.999L637.162 614.999C633.46 618.468 627.652 618.297 624.162 614.616L613.324 603.119 612.638 603.766 624.122 615.949C627.613 619.63 633.421 619.802 637.123 616.333L637.123 616.333C639.062 614.499 640.107 611.911 639.984 609.244Z" opacity="0.2" transform="translate(-156 -140.947)"/><path d="M565.861 608.31C562.371 604.628 556.563 604.457 552.861 607.926L552.861 607.926C549.18 611.416 549.008 617.224 552.477 620.926L564.285 633.452 577.669 620.836Z" fill="#3F3D56" transform="translate(-156 -140.947)"/><path d="M588.507 632.332 577.022 620.149 563.638 632.766 575.122 644.949C578.613 648.63 584.421 648.802 588.123 645.333L588.123 645.333C591.804 641.842 591.975 636.034 588.507 632.332Z" fill="#1E1E1E" transform="translate(-156 -140.947)"/><path d="M590.984 638.244C590.769 640.44 589.766 642.484 588.162 643.999L588.162 643.999C584.46 647.468 578.652 647.297 575.162 643.616L564.324 632.119 563.638 632.766 575.122 644.949C578.613 648.63 584.421 648.802 588.123 645.333L588.123 645.333C590.062 643.499 591.107 640.911 590.984 638.244Z" opacity="0.2" transform="translate(-156 -140.947)"/><path d="M614.861 635.31C611.371 631.628 605.563 631.457 601.861 634.926L601.861 634.926C598.18 638.416 598.008 644.224 601.477 647.926L613.285 660.452 626.669 647.836Z" fill="#3F3D56" transform="translate(-156 -140.947)"/><path d="M637.507 659.332 626.022 647.149 612.638 659.766 624.122 671.949C627.613 675.63 633.421 675.802 637.123 672.333L637.123 672.333C640.804 668.842 640.975 663.034 637.507 659.332Z" fill="#1E1E1E" transform="translate(-156 -140.947)"/><path d="M639.984 665.244C639.769 667.44 638.766 669.484 637.162 670.999L637.162 670.999C633.46 674.468 627.652 674.297 624.162 670.616L613.324 659.119 612.638 659.766 624.122 671.949C627.613 675.63 633.421 675.802 637.123 672.333L637.123 672.333C639.062 670.499 640.107 667.911 639.984 665.244Z" opacity="0.2" transform="translate(-156 -140.947)"/><path d="M644.754 692.777C648.393 689.242 648.494 683.432 644.98 679.772L644.98 679.772C641.445 676.134 635.635 676.033 631.976 679.547L619.594 691.506 632.372 704.736Z" fill="#3F3D56" transform="translate(-156 -140.947)"/><path d="M621.008 715.712 633.051 704.08 620.272 690.851 608.23 702.482C604.591 706.017 604.49 711.827 608.004 715.486L608.004 715.486C611.539 719.125 617.349 719.226 621.008 715.712Z" fill="#1E1E1E" transform="translate(-156 -140.947)"/><path d="M615.127 718.261C612.928 718.072 610.872 717.095 609.338 715.509L609.338 715.509C605.824 711.85 605.925 706.04 609.564 702.505L620.928 691.529 620.272 690.851 608.23 702.482C604.591 706.017 604.49 711.827 608.004 715.486L608.004 715.486C609.862 717.403 612.462 718.416 615.127 718.261Z" opacity="0.2" transform="translate(-156 -140.947)"/><path d="M578.754 663.777C582.393 660.242 582.494 654.432 578.98 650.772L578.98 650.772C575.445 647.134 569.635 647.033 565.976 650.547L553.594 662.506 566.372 675.736Z" fill="#3F3D56" transform="translate(-156 -140.947)"/><path d="M555.008 686.712 567.051 675.08 554.272 661.851 542.23 673.482C538.591 677.017 538.49 682.827 542.004 686.486L542.004 686.486C545.539 690.125 551.349 690.226 555.008 686.712Z" fill="#1E1E1E" transform="translate(-156 -140.947)"/><path d="M549.127 689.261C546.928 689.072 544.872 688.095 543.338 686.509L543.338 686.509C539.824 682.85 539.925 677.04 543.564 673.505L554.928 662.529 554.272 661.851 542.23 673.482C538.591 677.017 538.49 682.827 542.004 686.486L542.004 686.486C543.862 688.403 546.462 689.416 549.127 689.261Z" opacity="0.2" transform="translate(-156 -140.947)"/><path d="M672.754 628.777C676.393 625.242 676.494 619.432 672.98 615.772L672.98 615.772C669.445 612.134 663.635 612.033 659.976 615.547L647.594 627.506 660.372 640.736Z" fill="#3F3D56" transform="translate(-156 -140.947)"/><path d="M649.008 651.712 661.051 640.08 648.272 626.851 636.23 638.482C632.591 642.017 632.49 647.827 636.004 651.486L636.004 651.486C639.539 655.125 645.349 655.226 649.008 651.712Z" fill="#1E1E1E" transform="translate(-156 -140.947)"/><path d="M643.127 654.261C640.928 654.072 638.872 653.095 637.338 651.509L637.338 651.509C633.824 647.85 633.925 642.04 637.564 638.505L648.928 627.529 648.272 626.851 636.23 638.482C632.591 642.017 632.49 647.827 636.004 651.486L636.004 651.486C637.862 653.403 640.462 654.416 643.127 654.261Z" opacity="0.2" transform="translate(-156 -140.947)"/><path d="M651.861 701.31C648.371 697.628 642.563 697.457 638.861 700.926L638.861 700.926C635.18 704.416 635.008 710.224 638.477 713.926L650.285 726.452 663.669 713.836Z" fill="#3F3D56" transform="translate(-156 -140.947)"/><path d="M674.507 725.332 663.022 713.149 649.638 725.766 661.122 737.949C664.613 741.63 670.421 741.802 674.123 738.333L674.123 738.333C677.804 734.842 677.975 729.034 674.507 725.332Z" fill="#1E1E1E" transform="translate(-156 -140.947)"/><path d="M676.984 731.244C676.769 733.44 675.766 735.484 674.162 736.999L674.162 736.999C670.46 740.468 664.652 740.297 661.162 736.616L650.324 725.119 649.638 725.766 661.122 737.949C664.613 741.63 670.421 741.802 674.123 738.333L674.123 738.333C676.062 736.499 677.107 733.911 676.984 731.244Z" opacity="0.2" transform="translate(-156 -140.947)"/><path d="M586.861 700.31C583.371 696.628 577.563 696.457 573.861 699.926L573.861 699.926C570.18 703.416 570.008 709.224 573.477 712.926L585.285 725.452 598.669 712.836Z" fill="#3F3D56" transform="translate(-156 -140.947)"/><path d="M609.507 724.332 598.022 712.149 584.638 724.766 596.122 736.949C599.613 740.63 605.421 740.802 609.123 737.333L609.123 737.333C612.804 733.842 612.975 728.034 609.507 724.332Z" fill="#1E1E1E" transform="translate(-156 -140.947)"/><path d="M611.984 730.244C611.769 732.44 610.766 734.484 609.162 735.999L609.162 735.999C605.46 739.468 599.652 739.297 596.162 735.616L585.324 724.119 584.638 724.766 596.122 736.949C599.613 740.63 605.421 740.802 609.123 737.333L609.123 737.333C611.062 735.499 612.107 732.911 611.984 730.244Z" opacity="0.2" transform="translate(-156 -140.947)"/><path d="M605.158 667.316C605.159 673.62 600.724 679.053 594.547 680.314 592.797 680.668 590.993 680.668 589.242 680.314 582.064 678.847 577.433 671.839 578.9 664.66 579.964 659.452 584.034 655.382 589.242 654.318 590.993 653.965 592.797 653.965 594.547 654.318 600.724 655.579 605.159 661.013 605.158 667.316Z" fill="#1E1E1E" transform="translate(-156 -140.947)"/><path d="M594.547 654.318 594.547 680.314C592.797 680.668 590.993 680.668 589.242 680.314L589.242 654.318C590.993 653.965 592.797 653.965 594.547 654.318Z" opacity="0.2" transform="translate(-156 -140.947)"/><path d="M611.158 614.316C611.159 620.62 606.724 626.053 600.547 627.314 598.797 627.668 596.993 627.668 595.242 627.314 588.064 625.847 583.433 618.839 584.9 611.66 585.964 606.452 590.034 602.382 595.242 601.318 596.993 600.965 598.797 600.965 600.547 601.318 606.724 602.579 611.159 608.013 611.158 614.316Z" fill="#1E1E1E" transform="translate(-156 -140.947)"/><path d="M600.547 601.318 600.547 627.314C598.797 627.668 596.993 627.668 595.242 627.314L595.242 601.318C596.993 600.965 598.797 600.965 600.547 601.318Z" opacity="0.2" transform="translate(-156 -140.947)"/><path d="M611.158 690.316C611.159 696.62 606.724 702.053 600.547 703.314 598.797 703.668 596.993 703.668 595.242 703.314 588.064 701.847 583.433 694.839 584.9 687.66 585.964 682.452 590.034 678.382 595.242 677.318 596.993 676.965 598.797 676.965 600.547 677.318 606.724 678.579 611.159 684.013 611.158 690.316Z" fill="#1E1E1E" transform="translate(-156 -140.947)"/><path d="M600.547 677.318 600.547 703.314C598.797 703.668 596.993 703.668 595.242 703.314L595.242 677.318C596.993 676.965 598.797 676.965 600.547 677.318Z" opacity="0.2" transform="translate(-156 -140.947)"/><path d="M644.158 727.316C644.159 733.62 639.724 739.053 633.547 740.314 631.797 740.668 629.993 740.668 628.242 740.314 621.064 738.847 616.433 731.839 617.9 724.66 618.964 719.452 623.034 715.382 628.242 714.318 629.993 713.965 631.797 713.965 633.547 714.318 639.724 715.579 644.159 721.013 644.158 727.316Z" fill="#1E1E1E" transform="translate(-156 -140.947)"/><path d="M633.547 714.318 633.547 740.314C631.797 740.668 629.993 740.668 628.242 740.314L628.242 714.318C629.993 713.965 631.797 713.965 633.547 714.318Z" opacity="0.2" transform="translate(-156 -140.947)"/><path d="M673.31 659.24C677.849 663.614 678.683 670.578 675.305 675.9 674.344 677.406 673.092 678.705 671.623 679.72 665.585 683.871 657.326 682.341 653.175 676.303 650.164 671.922 650.058 666.168 652.906 661.68 653.866 660.174 655.118 658.875 656.588 657.86 661.781 654.288 668.772 654.865 673.31 659.24Z" fill="#1E1E1E" transform="translate(-156 -140.947)"/><path d="M656.588 657.86 675.305 675.9C674.344 677.406 673.093 678.705 671.623 679.72L652.906 661.68C653.866 660.174 655.118 658.875 656.588 657.86Z" opacity="0.2" transform="translate(-156 -140.947)"/><path d="M677.31 688.24C681.849 692.614 682.683 699.578 679.305 704.9 678.344 706.406 677.092 707.705 675.623 708.72 669.585 712.871 661.326 711.341 657.175 705.303 654.164 700.922 654.058 695.168 656.906 690.68 657.866 689.174 659.118 687.875 660.588 686.86 665.781 683.288 672.772 683.865 677.31 688.24Z" fill="#1E1E1E" transform="translate(-156 -140.947)"/><path d="M660.588 686.86 679.305 704.9C678.344 706.406 677.093 707.705 675.623 708.72L656.906 690.68C657.866 689.174 659.118 687.875 660.588 686.86Z" opacity="0.2" transform="translate(-156 -140.947)"/><path d="M558.31 695.24C562.849 699.614 563.683 706.578 560.305 711.9 559.344 713.406 558.092 714.705 556.623 715.72 550.585 719.871 542.326 718.341 538.175 712.303 535.164 707.922 535.058 702.168 537.906 697.68 538.866 696.174 540.118 694.875 541.588 693.86 546.781 690.288 553.772 690.865 558.31 695.24Z" fill="#1E1E1E" transform="translate(-156 -140.947)"/><path d="M541.588 693.86 560.305 711.9C559.344 713.406 558.093 714.705 556.623 715.72L537.906 697.68C538.866 696.174 540.118 694.875 541.588 693.86Z" opacity="0.2" transform="translate(-156 -140.947)"/><rect x="354.5" y="316.106" width="5" height="37" opacity="0.2"/><rect x="383.5" y="316.106" width="5" height="37" opacity="0.2"/><rect x="412.5" y="316.106" width="5" height="37" opacity="0.2"/><rect x="441.5" y="316.106" width="5" height="37" opacity="0.2"/><rect x="470.5" y="316.106" width="5" height="37" opacity="0.2"/><rect x="499.5" y="316.106" width="5" height="37" opacity="0.2"/><rect x="528.5" y="316.106" width="5" height="37" opacity="0.2"/></svg>